<mxfile host="app.diagrams.net" modified="2024-07-22T01:32:24.811Z" agent="Mozilla/5.0 (Macintosh; Intel Mac OS X 10_15_7) AppleWebKit/605.1.15 (KHTML, like Gecko) Version/17.5 Safari/605.1.15" etag="ts4yh6tTr6A7s_fvQB3l" version="24.7.1" type="github">
  <diagram name="페이지-1" id="hgYq2Uir7IqxpZ1pt78Q">
    <mxGraphModel dx="2536" dy="1986" grid="1" gridSize="10" guides="1" tooltips="1" connect="1" arrows="1" fold="1" page="1" pageScale="1" pageWidth="1600" pageHeight="900" math="0" shadow="0">
      <root>
        <mxCell id="0" />
        <mxCell id="1" parent="0" />
        <mxCell id="XxIpFaAC-THrezAwxCm5-1" value="" style="verticalLabelPosition=bottom;verticalAlign=top;html=1;shape=offPageConnector;rounded=0;size=0.24944812362030913;movable=0;resizable=0;rotatable=0;deletable=0;editable=0;locked=1;connectable=0;" parent="1" vertex="1">
          <mxGeometry x="-3.3899999999999864" y="-630" width="1340" height="960" as="geometry" />
        </mxCell>
        <mxCell id="XxIpFaAC-THrezAwxCm5-2" value="KVaser" style="rounded=0;whiteSpace=wrap;html=1;" parent="1" vertex="1">
          <mxGeometry x="316.02983870967745" y="70" width="77.74193548387098" height="27.2" as="geometry" />
        </mxCell>
        <mxCell id="XxIpFaAC-THrezAwxCm5-3" value="Mode, Velocity, Steer Angle&lt;br&gt;KIAPI Signal" style="text;html=1;align=center;verticalAlign=middle;whiteSpace=wrap;rounded=0;" parent="1" vertex="1">
          <mxGeometry x="272.3" y="104" width="165.20161290322582" height="20.4" as="geometry" />
        </mxCell>
        <mxCell id="XxIpFaAC-THrezAwxCm5-4" value="&lt;span style=&quot;text-align: left;&quot;&gt;Position ( Lat, Long ),&amp;nbsp;&lt;/span&gt;&lt;div&gt;&lt;span style=&quot;text-align: left;&quot;&gt;Heading (True north)&lt;/span&gt;&lt;span style=&quot;text-align: left;&quot;&gt;&amp;nbsp;&lt;/span&gt;&lt;/div&gt;" style="text;html=1;align=center;verticalAlign=middle;whiteSpace=wrap;rounded=0;" parent="1" vertex="1">
          <mxGeometry x="426.0593548387098" y="76.79999999999998" width="170.06048387096774" height="27.2" as="geometry" />
        </mxCell>
        <mxCell id="XxIpFaAC-THrezAwxCm5-5" value="Point Cloud" style="text;html=1;align=center;verticalAlign=middle;whiteSpace=wrap;rounded=0;" parent="1" vertex="1">
          <mxGeometry x="618.9083870967744" y="-480" width="165.20161290322582" height="20.4" as="geometry" />
        </mxCell>
        <mxCell id="beJByMkyxtQlN6O2iedv-18" style="edgeStyle=orthogonalEdgeStyle;rounded=0;orthogonalLoop=1;jettySize=auto;html=1;exitX=0.5;exitY=1;exitDx=0;exitDy=0;" edge="1" parent="1" source="XxIpFaAC-THrezAwxCm5-6" target="XxIpFaAC-THrezAwxCm5-7">
          <mxGeometry relative="1" as="geometry" />
        </mxCell>
        <mxCell id="beJByMkyxtQlN6O2iedv-30" style="edgeStyle=orthogonalEdgeStyle;rounded=0;orthogonalLoop=1;jettySize=auto;html=1;exitX=0.75;exitY=1;exitDx=0;exitDy=0;fontFamily=Helvetica;fontSize=12;fontColor=default;" edge="1" parent="1" source="XxIpFaAC-THrezAwxCm5-6" target="beJByMkyxtQlN6O2iedv-3">
          <mxGeometry relative="1" as="geometry" />
        </mxCell>
        <mxCell id="XxIpFaAC-THrezAwxCm5-6" value="Image" style="text;html=1;align=center;verticalAlign=middle;whiteSpace=wrap;rounded=0;" parent="1" vertex="1">
          <mxGeometry x="870" y="-337.2" width="70" height="20.4" as="geometry" />
        </mxCell>
        <mxCell id="XxIpFaAC-THrezAwxCm5-7" value="Object Detection" style="shape=hexagon;perimeter=hexagonPerimeter2;whiteSpace=wrap;html=1;fixedSize=1;fillColor=#f8cecc;strokeColor=#b85450;" parent="1" vertex="1">
          <mxGeometry x="847.350483870968" y="-260.6" width="116.61290322580645" height="54.4" as="geometry" />
        </mxCell>
        <mxCell id="beJByMkyxtQlN6O2iedv-10" style="edgeStyle=orthogonalEdgeStyle;rounded=0;orthogonalLoop=1;jettySize=auto;html=1;exitX=0.5;exitY=1;exitDx=0;exitDy=0;entryX=0.5;entryY=0;entryDx=0;entryDy=0;" edge="1" parent="1" source="XxIpFaAC-THrezAwxCm5-8" target="beJByMkyxtQlN6O2iedv-9">
          <mxGeometry relative="1" as="geometry" />
        </mxCell>
        <mxCell id="XxIpFaAC-THrezAwxCm5-8" value="yolovx" style="rounded=0;whiteSpace=wrap;html=1;" parent="1" vertex="1">
          <mxGeometry x="847.100483870968" y="-150.6" width="116.61290322580645" height="40.8" as="geometry" />
        </mxCell>
        <mxCell id="beJByMkyxtQlN6O2iedv-11" style="edgeStyle=orthogonalEdgeStyle;rounded=0;orthogonalLoop=1;jettySize=auto;html=1;exitX=0.5;exitY=1;exitDx=0;exitDy=0;" edge="1" parent="1" source="XxIpFaAC-THrezAwxCm5-9" target="beJByMkyxtQlN6O2iedv-6">
          <mxGeometry relative="1" as="geometry" />
        </mxCell>
        <mxCell id="XxIpFaAC-THrezAwxCm5-9" value="Distance Estimation" style="rounded=0;whiteSpace=wrap;html=1;" parent="1" vertex="1">
          <mxGeometry x="972.4004838709681" y="-150.60000000000005" width="116.61290322580645" height="40.8" as="geometry" />
        </mxCell>
        <mxCell id="XxIpFaAC-THrezAwxCm5-11" value="Obstacle List" style="shape=parallelogram;perimeter=parallelogramPerimeter;whiteSpace=wrap;html=1;fixedSize=1;" parent="1" vertex="1">
          <mxGeometry x="640.0927419354839" y="244.59999999999994" width="116.61290322580645" height="40.8" as="geometry" />
        </mxCell>
        <mxCell id="XxIpFaAC-THrezAwxCm5-12" value="Obstacle List" style="shape=parallelogram;perimeter=parallelogramPerimeter;whiteSpace=wrap;html=1;fixedSize=1;" parent="1" vertex="1">
          <mxGeometry x="907.590483870968" y="70.39999999999995" width="116.61290322580645" height="40.8" as="geometry" />
        </mxCell>
        <mxCell id="XxIpFaAC-THrezAwxCm5-13" style="edgeStyle=orthogonalEdgeStyle;rounded=0;orthogonalLoop=1;jettySize=auto;html=1;exitX=0.5;exitY=1;exitDx=0;exitDy=0;entryX=0.5;entryY=0;entryDx=0;entryDy=0;" parent="1" source="XxIpFaAC-THrezAwxCm5-14" target="XxIpFaAC-THrezAwxCm5-15" edge="1">
          <mxGeometry relative="1" as="geometry" />
        </mxCell>
        <mxCell id="XxIpFaAC-THrezAwxCm5-14" value="Filtering" style="shape=hexagon;perimeter=hexagonPerimeter2;whiteSpace=wrap;html=1;fixedSize=1;fillColor=#f8cecc;strokeColor=#b85450;" parent="1" vertex="1">
          <mxGeometry x="989.9954838709677" y="650" width="116.61290322580645" height="54.4" as="geometry" />
        </mxCell>
        <mxCell id="XxIpFaAC-THrezAwxCm5-15" value="Conver to ENU" style="rounded=0;whiteSpace=wrap;html=1;" parent="1" vertex="1">
          <mxGeometry x="989.9954838709677" y="717.9999999999999" width="116.61290322580645" height="40.8" as="geometry" />
        </mxCell>
        <mxCell id="XxIpFaAC-THrezAwxCm5-16" value="Convert to Frenet" style="rounded=0;whiteSpace=wrap;html=1;" parent="1" vertex="1">
          <mxGeometry x="989.9954838709677" y="779.1999999999999" width="116.61290322580645" height="40.8" as="geometry" />
        </mxCell>
        <mxCell id="XxIpFaAC-THrezAwxCm5-17" value="" style="endArrow=classic;html=1;rounded=0;exitX=0.5;exitY=1;exitDx=0;exitDy=0;" parent="1" source="XxIpFaAC-THrezAwxCm5-15" target="XxIpFaAC-THrezAwxCm5-16" edge="1">
          <mxGeometry width="50" height="50" relative="1" as="geometry">
            <mxPoint x="941.4067741935485" y="840.4" as="sourcePoint" />
            <mxPoint x="989.9954838709677" y="806.4" as="targetPoint" />
          </mxGeometry>
        </mxCell>
        <mxCell id="XxIpFaAC-THrezAwxCm5-18" value="" style="endArrow=classic;html=1;rounded=0;exitX=0.5;exitY=1;exitDx=0;exitDy=0;" parent="1" target="XxIpFaAC-THrezAwxCm5-20" edge="1">
          <mxGeometry width="50" height="50" relative="1" as="geometry">
            <mxPoint x="1048.301935483871" y="820" as="sourcePoint" />
            <mxPoint x="989.9954838709677" y="867.5999999999999" as="targetPoint" />
          </mxGeometry>
        </mxCell>
        <mxCell id="XxIpFaAC-THrezAwxCm5-19" style="edgeStyle=orthogonalEdgeStyle;rounded=0;orthogonalLoop=1;jettySize=auto;html=1;exitX=0.5;exitY=1;exitDx=0;exitDy=0;entryX=0.5;entryY=0;entryDx=0;entryDy=0;" parent="1" source="XxIpFaAC-THrezAwxCm5-20" target="XxIpFaAC-THrezAwxCm5-21" edge="1">
          <mxGeometry relative="1" as="geometry" />
        </mxCell>
        <mxCell id="XxIpFaAC-THrezAwxCm5-20" value="Frenet Filtering by&lt;div&gt;Lane number&lt;/div&gt;" style="rounded=0;whiteSpace=wrap;html=1;" parent="1" vertex="1">
          <mxGeometry x="989.9954838709677" y="840.4" width="116.61290322580645" height="40.8" as="geometry" />
        </mxCell>
        <mxCell id="XxIpFaAC-THrezAwxCm5-21" value="Obstacle List" style="shape=parallelogram;perimeter=parallelogramPerimeter;whiteSpace=wrap;html=1;fixedSize=1;" parent="1" vertex="1">
          <mxGeometry x="989.9954838709677" y="901.5999999999999" width="116.61290322580645" height="40.8" as="geometry" />
        </mxCell>
        <mxCell id="XxIpFaAC-THrezAwxCm5-22" value="" style="endArrow=classic;html=1;rounded=0;exitX=0.5;exitY=1;exitDx=0;exitDy=0;" parent="1" source="XxIpFaAC-THrezAwxCm5-7" target="XxIpFaAC-THrezAwxCm5-8" edge="1">
          <mxGeometry width="50" height="50" relative="1" as="geometry">
            <mxPoint x="358.0101612903226" y="-232.20000000000002" as="sourcePoint" />
            <mxPoint x="610.6714516129034" y="-225.39999999999995" as="targetPoint" />
          </mxGeometry>
        </mxCell>
        <mxCell id="XxIpFaAC-THrezAwxCm5-23" value="Cloud Segmentation" style="shape=hexagon;perimeter=hexagonPerimeter2;whiteSpace=wrap;html=1;fixedSize=1;fillColor=#f8cecc;strokeColor=#b85450;" parent="1" vertex="1">
          <mxGeometry x="641.512741935484" y="-446" width="116.61290322580645" height="54.4" as="geometry" />
        </mxCell>
        <mxCell id="XxIpFaAC-THrezAwxCm5-24" value="synchronization" style="rounded=0;whiteSpace=wrap;html=1;" parent="1" vertex="1">
          <mxGeometry x="641.512741935484" y="-378" width="116.61290322580645" height="40.8" as="geometry" />
        </mxCell>
        <mxCell id="XxIpFaAC-THrezAwxCm5-25" value="Undistortion" style="rounded=0;whiteSpace=wrap;html=1;" parent="1" vertex="1">
          <mxGeometry x="641.512741935484" y="-316.80000000000007" width="116.61290322580645" height="40.8" as="geometry" />
        </mxCell>
        <mxCell id="XxIpFaAC-THrezAwxCm5-26" value="" style="endArrow=classic;html=1;rounded=0;exitX=0.5;exitY=1;exitDx=0;exitDy=0;" parent="1" source="XxIpFaAC-THrezAwxCm5-24" target="XxIpFaAC-THrezAwxCm5-25" edge="1">
          <mxGeometry width="50" height="50" relative="1" as="geometry">
            <mxPoint x="592.9240322580646" y="-255.60000000000002" as="sourcePoint" />
            <mxPoint x="641.512741935484" y="-289.6" as="targetPoint" />
          </mxGeometry>
        </mxCell>
        <mxCell id="XxIpFaAC-THrezAwxCm5-27" value="" style="endArrow=classic;html=1;rounded=0;exitX=0.5;exitY=1;exitDx=0;exitDy=0;entryX=0.5;entryY=0;entryDx=0;entryDy=0;" parent="1" source="XxIpFaAC-THrezAwxCm5-23" target="XxIpFaAC-THrezAwxCm5-24" edge="1">
          <mxGeometry width="50" height="50" relative="1" as="geometry">
            <mxPoint x="913.6095161290325" y="-126.40000000000003" as="sourcePoint" />
            <mxPoint x="1122.5409677419354" y="-24.400000000000027" as="targetPoint" />
          </mxGeometry>
        </mxCell>
        <mxCell id="XxIpFaAC-THrezAwxCm5-28" style="edgeStyle=orthogonalEdgeStyle;rounded=0;orthogonalLoop=1;jettySize=auto;html=1;exitX=0.5;exitY=1;exitDx=0;exitDy=0;entryX=0.5;entryY=0;entryDx=0;entryDy=0;" parent="1" source="XxIpFaAC-THrezAwxCm5-30" target="XxIpFaAC-THrezAwxCm5-32" edge="1">
          <mxGeometry relative="1" as="geometry">
            <mxPoint x="793.771935483871" y="720.0000000000001" as="sourcePoint" />
          </mxGeometry>
        </mxCell>
        <mxCell id="XxIpFaAC-THrezAwxCm5-29" style="edgeStyle=orthogonalEdgeStyle;rounded=0;orthogonalLoop=1;jettySize=auto;html=1;exitX=0.5;exitY=1;exitDx=0;exitDy=0;entryX=0.5;entryY=0;entryDx=0;entryDy=0;" parent="1" source="XxIpFaAC-THrezAwxCm5-30" target="XxIpFaAC-THrezAwxCm5-39" edge="1">
          <mxGeometry relative="1" as="geometry" />
        </mxCell>
        <mxCell id="XxIpFaAC-THrezAwxCm5-30" value="Converting" style="shape=hexagon;perimeter=hexagonPerimeter2;whiteSpace=wrap;html=1;fixedSize=1;fillColor=#d5e8d4;strokeColor=#82b366;" parent="1" vertex="1">
          <mxGeometry x="735.4654838709678" y="650" width="116.61290322580645" height="54.4" as="geometry" />
        </mxCell>
        <mxCell id="XxIpFaAC-THrezAwxCm5-31" style="edgeStyle=orthogonalEdgeStyle;rounded=0;orthogonalLoop=1;jettySize=auto;html=1;exitX=0.5;exitY=1;exitDx=0;exitDy=0;entryX=0.5;entryY=0;entryDx=0;entryDy=0;" parent="1" source="XxIpFaAC-THrezAwxCm5-32" target="XxIpFaAC-THrezAwxCm5-34" edge="1">
          <mxGeometry relative="1" as="geometry" />
        </mxCell>
        <mxCell id="XxIpFaAC-THrezAwxCm5-32" value="Conver to ENU" style="rounded=0;whiteSpace=wrap;html=1;" parent="1" vertex="1">
          <mxGeometry x="679.9954838709677" y="733.5999999999999" width="116.61290322580645" height="40.8" as="geometry" />
        </mxCell>
        <mxCell id="XxIpFaAC-THrezAwxCm5-33" style="edgeStyle=none;curved=1;rounded=0;orthogonalLoop=1;jettySize=auto;html=1;exitX=0.5;exitY=1;exitDx=0;exitDy=0;entryX=0.5;entryY=0;entryDx=0;entryDy=0;fontSize=12;startSize=8;endSize=8;" parent="1" source="XxIpFaAC-THrezAwxCm5-34" target="XxIpFaAC-THrezAwxCm5-100" edge="1">
          <mxGeometry relative="1" as="geometry" />
        </mxCell>
        <mxCell id="XxIpFaAC-THrezAwxCm5-34" value="Local Pose" style="shape=parallelogram;perimeter=parallelogramPerimeter;whiteSpace=wrap;html=1;fixedSize=1;" parent="1" vertex="1">
          <mxGeometry x="679.9954838709677" y="794.8" width="116.61290322580645" height="40.8" as="geometry" />
        </mxCell>
        <mxCell id="XxIpFaAC-THrezAwxCm5-35" style="edgeStyle=orthogonalEdgeStyle;rounded=0;orthogonalLoop=1;jettySize=auto;html=1;exitX=0.5;exitY=1;exitDx=0;exitDy=0;entryX=0.5;entryY=0;entryDx=0;entryDy=0;" parent="1" source="XxIpFaAC-THrezAwxCm5-36" target="XxIpFaAC-THrezAwxCm5-37" edge="1">
          <mxGeometry relative="1" as="geometry" />
        </mxCell>
        <mxCell id="XxIpFaAC-THrezAwxCm5-36" value="Transition" style="shape=hexagon;perimeter=hexagonPerimeter2;whiteSpace=wrap;html=1;fixedSize=1;fillColor=#fff2cc;strokeColor=#d6b656;" parent="1" vertex="1">
          <mxGeometry x="374.5254838709677" y="650" width="116.61290322580645" height="54.4" as="geometry" />
        </mxCell>
        <mxCell id="XxIpFaAC-THrezAwxCm5-37" value="ACC/EPS ON" style="shape=parallelogram;perimeter=parallelogramPerimeter;whiteSpace=wrap;html=1;fixedSize=1;" parent="1" vertex="1">
          <mxGeometry x="374.5254838709677" y="719.9999999999999" width="116.61290322580645" height="40.8" as="geometry" />
        </mxCell>
        <mxCell id="XxIpFaAC-THrezAwxCm5-38" style="edgeStyle=orthogonalEdgeStyle;rounded=0;orthogonalLoop=1;jettySize=auto;html=1;exitX=0.5;exitY=1;exitDx=0;exitDy=0;entryX=0.5;entryY=0;entryDx=0;entryDy=0;" parent="1" source="XxIpFaAC-THrezAwxCm5-39" target="XxIpFaAC-THrezAwxCm5-40" edge="1">
          <mxGeometry relative="1" as="geometry" />
        </mxCell>
        <mxCell id="XxIpFaAC-THrezAwxCm5-39" value="Convert to Absolute Heading" style="rounded=0;whiteSpace=wrap;html=1;" parent="1" vertex="1">
          <mxGeometry x="809.9954838709677" y="733.5999999999999" width="116.61290322580645" height="40.8" as="geometry" />
        </mxCell>
        <mxCell id="XxIpFaAC-THrezAwxCm5-40" value="Absolute Heading" style="shape=parallelogram;perimeter=parallelogramPerimeter;whiteSpace=wrap;html=1;fixedSize=1;" parent="1" vertex="1">
          <mxGeometry x="809.9954838709677" y="794.8" width="116.61290322580645" height="40.8" as="geometry" />
        </mxCell>
        <mxCell id="XxIpFaAC-THrezAwxCm5-41" value="Planning" style="shape=cube;whiteSpace=wrap;html=1;boundedLbl=1;backgroundOutline=1;darkOpacity=0.05;darkOpacity2=0.1;fillColor=#f8cecc;strokeColor=#b85450;" parent="1" vertex="1">
          <mxGeometry x="610" y="1220" width="120" height="80" as="geometry" />
        </mxCell>
        <mxCell id="XxIpFaAC-THrezAwxCm5-42" value="&lt;span style=&quot;caret-color: rgb(0, 0, 0); color: rgb(0, 0, 0); font-family: Helvetica; font-size: 12px; font-style: normal; font-variant-caps: normal; font-weight: 400; letter-spacing: normal; orphans: auto; text-align: center; text-indent: 0px; text-transform: none; white-space: normal; widows: auto; word-spacing: 0px; -webkit-text-stroke-width: 0px; background-color: rgb(255, 255, 255); text-decoration: none; display: inline !important; float: none;&quot;&gt;Controller&lt;/span&gt;" style="shape=cylinder3;whiteSpace=wrap;html=1;boundedLbl=1;backgroundOutline=1;size=15;" parent="1" vertex="1">
          <mxGeometry x="324.90000000000003" y="-10.000000000000028" width="60" height="80" as="geometry" />
        </mxCell>
        <mxCell id="XxIpFaAC-THrezAwxCm5-43" value="&lt;span style=&quot;caret-color: rgb(0, 0, 0); color: rgb(0, 0, 0); font-family: Helvetica; font-size: 12px; font-style: normal; font-variant-caps: normal; font-weight: 400; letter-spacing: normal; orphans: auto; text-align: center; text-indent: 0px; text-transform: none; white-space: normal; widows: auto; word-spacing: 0px; -webkit-text-stroke-width: 0px; background-color: rgb(255, 255, 255); text-decoration: none; display: inline !important; float: none;&quot;&gt;GPS/INS&lt;/span&gt;" style="shape=cylinder3;whiteSpace=wrap;html=1;boundedLbl=1;backgroundOutline=1;size=15;" parent="1" vertex="1">
          <mxGeometry x="478.66" y="-10.000000000000028" width="60" height="80" as="geometry" />
        </mxCell>
        <mxCell id="XxIpFaAC-THrezAwxCm5-44" value="LiDAR" style="shape=cylinder3;whiteSpace=wrap;html=1;boundedLbl=1;backgroundOutline=1;size=15;" parent="1" vertex="1">
          <mxGeometry x="667.5500000000001" y="-560" width="60" height="80" as="geometry" />
        </mxCell>
        <mxCell id="XxIpFaAC-THrezAwxCm5-45" value="Front Center Camera" style="shape=cylinder3;whiteSpace=wrap;html=1;boundedLbl=1;backgroundOutline=1;size=15;" parent="1" vertex="1">
          <mxGeometry x="875.4100000000003" y="-417.20000000000005" width="60" height="80" as="geometry" />
        </mxCell>
        <mxCell id="XxIpFaAC-THrezAwxCm5-46" value="map_lane" style="shape=cube;whiteSpace=wrap;html=1;boundedLbl=1;backgroundOutline=1;darkOpacity=0.05;darkOpacity2=0.1;fillColor=#d5e8d4;strokeColor=#82b366;" parent="1" vertex="1">
          <mxGeometry x="1176.61" y="1220" width="120" height="80" as="geometry" />
        </mxCell>
        <mxCell id="XxIpFaAC-THrezAwxCm5-47" value="Control" style="shape=cube;whiteSpace=wrap;html=1;boundedLbl=1;backgroundOutline=1;darkOpacity=0.05;darkOpacity2=0.1;fillColor=#ffe6cc;strokeColor=#d79b00;" parent="1" vertex="1">
          <mxGeometry x="-30.000000000000057" y="1230" width="120" height="80" as="geometry" />
        </mxCell>
        <mxCell id="XxIpFaAC-THrezAwxCm5-48" value="Transmitter" style="shape=cube;whiteSpace=wrap;html=1;boundedLbl=1;backgroundOutline=1;darkOpacity=0.05;darkOpacity2=0.1;fillColor=#fff2cc;strokeColor=#d6b656;" parent="1" vertex="1">
          <mxGeometry x="-380" y="1220" width="120" height="80" as="geometry" />
        </mxCell>
        <mxCell id="XxIpFaAC-THrezAwxCm5-49" value="Visualizer" style="shape=cube;whiteSpace=wrap;html=1;boundedLbl=1;backgroundOutline=1;darkOpacity=0.05;darkOpacity2=0.1;fillColor=#d5e8d4;strokeColor=#82b366;" parent="1" vertex="1">
          <mxGeometry x="1416.61" y="1220" width="120" height="80" as="geometry" />
        </mxCell>
        <mxCell id="XxIpFaAC-THrezAwxCm5-50" value="UI" style="shape=cube;whiteSpace=wrap;html=1;boundedLbl=1;backgroundOutline=1;darkOpacity=0.05;darkOpacity2=0.1;" parent="1" vertex="1">
          <mxGeometry x="1649.2099999999998" y="1220" width="120" height="80" as="geometry" />
        </mxCell>
        <mxCell id="XxIpFaAC-THrezAwxCm5-51" style="edgeStyle=orthogonalEdgeStyle;rounded=0;orthogonalLoop=1;jettySize=auto;html=1;exitX=0.5;exitY=1;exitDx=0;exitDy=0;entryX=0.5;entryY=0;entryDx=0;entryDy=0;" parent="1" source="XxIpFaAC-THrezAwxCm5-52" target="XxIpFaAC-THrezAwxCm5-76" edge="1">
          <mxGeometry relative="1" as="geometry" />
        </mxCell>
        <mxCell id="XxIpFaAC-THrezAwxCm5-52" value="&lt;span style=&quot;background-color: rgb(251, 251, 251);&quot;&gt;Global Path Initialization&lt;/span&gt;" style="shape=hexagon;perimeter=hexagonPerimeter2;whiteSpace=wrap;html=1;fixedSize=1;" parent="1" vertex="1">
          <mxGeometry x="326.44370967741935" y="1990" width="116.61290322580645" height="54.4" as="geometry" />
        </mxCell>
        <mxCell id="XxIpFaAC-THrezAwxCm5-53" style="edgeStyle=none;curved=1;rounded=0;orthogonalLoop=1;jettySize=auto;html=1;exitX=0.5;exitY=1;exitDx=0;exitDy=0;entryX=0.5;entryY=0;entryDx=0;entryDy=0;fontSize=12;startSize=8;endSize=8;" parent="1" source="XxIpFaAC-THrezAwxCm5-54" target="XxIpFaAC-THrezAwxCm5-127" edge="1">
          <mxGeometry relative="1" as="geometry" />
        </mxCell>
        <mxCell id="XxIpFaAC-THrezAwxCm5-54" value="&lt;span style=&quot;background-color: rgb(251, 251, 251);&quot;&gt;Local Path Planner&lt;/span&gt;" style="shape=hexagon;perimeter=hexagonPerimeter2;whiteSpace=wrap;html=1;fixedSize=1;" parent="1" vertex="1">
          <mxGeometry x="820.7337096774194" y="1990" width="116.61290322580645" height="54.4" as="geometry" />
        </mxCell>
        <mxCell id="XxIpFaAC-THrezAwxCm5-55" style="edgeStyle=orthogonalEdgeStyle;rounded=0;orthogonalLoop=1;jettySize=auto;html=1;exitX=0.5;exitY=1;exitDx=0;exitDy=0;entryX=0.5;entryY=0;entryDx=0;entryDy=0;" parent="1" source="XxIpFaAC-THrezAwxCm5-56" target="XxIpFaAC-THrezAwxCm5-62" edge="1">
          <mxGeometry relative="1" as="geometry" />
        </mxCell>
        <mxCell id="XxIpFaAC-THrezAwxCm5-56" value="&lt;span style=&quot;background-color: rgb(251, 251, 251);&quot;&gt;Dynamic&lt;/span&gt;&lt;div&gt;&lt;span style=&quot;background-color: rgb(251, 251, 251);&quot;&gt;Global Path Planning&lt;/span&gt;&lt;/div&gt;" style="shape=hexagon;perimeter=hexagonPerimeter2;whiteSpace=wrap;html=1;fixedSize=1;" parent="1" vertex="1">
          <mxGeometry x="573.5237096774193" y="1990" width="116.61290322580645" height="54.4" as="geometry" />
        </mxCell>
        <mxCell id="XxIpFaAC-THrezAwxCm5-57" style="edgeStyle=orthogonalEdgeStyle;rounded=0;orthogonalLoop=1;jettySize=auto;html=1;exitX=0.5;exitY=1;exitDx=0;exitDy=0;" parent="1" source="XxIpFaAC-THrezAwxCm5-58" target="XxIpFaAC-THrezAwxCm5-60" edge="1">
          <mxGeometry relative="1" as="geometry" />
        </mxCell>
        <mxCell id="XxIpFaAC-THrezAwxCm5-58" value="Calculate Node,Edge &amp;amp; Save" style="rounded=0;whiteSpace=wrap;html=1;" parent="1" vertex="1">
          <mxGeometry x="257.58548387096795" y="2410" width="116.61290322580645" height="40.8" as="geometry" />
        </mxCell>
        <mxCell id="XxIpFaAC-THrezAwxCm5-59" style="edgeStyle=orthogonalEdgeStyle;rounded=0;orthogonalLoop=1;jettySize=auto;html=1;exitX=0.5;exitY=1;exitDx=0;exitDy=0;entryX=0.5;entryY=0;entryDx=0;entryDy=0;" parent="1" source="XxIpFaAC-THrezAwxCm5-60" edge="1">
          <mxGeometry relative="1" as="geometry">
            <mxPoint x="315.88193548387113" y="2550" as="targetPoint" />
          </mxGeometry>
        </mxCell>
        <mxCell id="XxIpFaAC-THrezAwxCm5-60" value="Pruning" style="rounded=0;whiteSpace=wrap;html=1;" parent="1" vertex="1">
          <mxGeometry x="257.58" y="2480" width="115.15" height="40" as="geometry" />
        </mxCell>
        <mxCell id="XxIpFaAC-THrezAwxCm5-61" style="edgeStyle=orthogonalEdgeStyle;rounded=0;orthogonalLoop=1;jettySize=auto;html=1;exitX=0.5;exitY=1;exitDx=0;exitDy=0;entryX=0.5;entryY=0;entryDx=0;entryDy=0;" parent="1" source="XxIpFaAC-THrezAwxCm5-62" target="XxIpFaAC-THrezAwxCm5-70" edge="1">
          <mxGeometry relative="1" as="geometry" />
        </mxCell>
        <mxCell id="XxIpFaAC-THrezAwxCm5-62" value="Dijkstra Algorithm" style="rounded=0;whiteSpace=wrap;html=1;" parent="1" vertex="1">
          <mxGeometry x="573.5254838709676" y="2070" width="116.61290322580645" height="40.8" as="geometry" />
        </mxCell>
        <mxCell id="XxIpFaAC-THrezAwxCm5-63" style="edgeStyle=orthogonalEdgeStyle;rounded=0;orthogonalLoop=1;jettySize=auto;html=1;exitX=0.5;exitY=1;exitDx=0;exitDy=0;" parent="1" source="XxIpFaAC-THrezAwxCm5-64" target="XxIpFaAC-THrezAwxCm5-72" edge="1">
          <mxGeometry relative="1" as="geometry" />
        </mxCell>
        <mxCell id="XxIpFaAC-THrezAwxCm5-64" value="Load Race Line" style="rounded=0;whiteSpace=wrap;html=1;" parent="1" vertex="1">
          <mxGeometry x="257.58548387096795" y="2270" width="116.61290322580645" height="40.8" as="geometry" />
        </mxCell>
        <mxCell id="XxIpFaAC-THrezAwxCm5-65" style="edgeStyle=orthogonalEdgeStyle;rounded=0;orthogonalLoop=1;jettySize=auto;html=1;exitX=0.5;exitY=1;exitDx=0;exitDy=0;entryX=0.5;entryY=0;entryDx=0;entryDy=0;" parent="1" source="XxIpFaAC-THrezAwxCm5-66" target="XxIpFaAC-THrezAwxCm5-68" edge="1">
          <mxGeometry relative="1" as="geometry" />
        </mxCell>
        <mxCell id="XxIpFaAC-THrezAwxCm5-66" value="Generate Node, Edge" style="rounded=0;whiteSpace=wrap;html=1;" parent="1" vertex="1">
          <mxGeometry x="573.5354838709676" y="2280" width="116.61290322580645" height="40.8" as="geometry" />
        </mxCell>
        <mxCell id="XxIpFaAC-THrezAwxCm5-67" style="edgeStyle=orthogonalEdgeStyle;rounded=0;orthogonalLoop=1;jettySize=auto;html=1;exitX=0.5;exitY=1;exitDx=0;exitDy=0;" parent="1" source="XxIpFaAC-THrezAwxCm5-68" target="XxIpFaAC-THrezAwxCm5-84" edge="1">
          <mxGeometry relative="1" as="geometry" />
        </mxCell>
        <mxCell id="XxIpFaAC-THrezAwxCm5-68" value="Pruning" style="rounded=0;whiteSpace=wrap;html=1;" parent="1" vertex="1">
          <mxGeometry x="573.5254838709676" y="2350" width="116.61290322580645" height="40.8" as="geometry" />
        </mxCell>
        <mxCell id="XxIpFaAC-THrezAwxCm5-69" style="edgeStyle=orthogonalEdgeStyle;rounded=0;orthogonalLoop=1;jettySize=auto;html=1;exitX=0.5;exitY=1;exitDx=0;exitDy=0;entryX=0.5;entryY=0;entryDx=0;entryDy=0;" parent="1" source="XxIpFaAC-THrezAwxCm5-70" target="XxIpFaAC-THrezAwxCm5-74" edge="1">
          <mxGeometry relative="1" as="geometry" />
        </mxCell>
        <mxCell id="XxIpFaAC-THrezAwxCm5-70" value="Save Dynamic Path" style="rounded=0;whiteSpace=wrap;html=1;" parent="1" vertex="1">
          <mxGeometry x="573.5354838709676" y="2140" width="116.61290322580645" height="40.8" as="geometry" />
        </mxCell>
        <mxCell id="XxIpFaAC-THrezAwxCm5-71" style="edgeStyle=orthogonalEdgeStyle;rounded=0;orthogonalLoop=1;jettySize=auto;html=1;exitX=0.5;exitY=1;exitDx=0;exitDy=0;entryX=0.5;entryY=0;entryDx=0;entryDy=0;" parent="1" source="XxIpFaAC-THrezAwxCm5-72" target="XxIpFaAC-THrezAwxCm5-58" edge="1">
          <mxGeometry relative="1" as="geometry" />
        </mxCell>
        <mxCell id="XxIpFaAC-THrezAwxCm5-72" value="Generate Graph" style="rounded=0;whiteSpace=wrap;html=1;" parent="1" vertex="1">
          <mxGeometry x="252.7254838709678" y="2340" width="116.61290322580645" height="40.8" as="geometry" />
        </mxCell>
        <mxCell id="XxIpFaAC-THrezAwxCm5-73" style="edgeStyle=orthogonalEdgeStyle;rounded=0;orthogonalLoop=1;jettySize=auto;html=1;exitX=0.5;exitY=1;exitDx=0;exitDy=0;entryX=0.5;entryY=0;entryDx=0;entryDy=0;" parent="1" source="XxIpFaAC-THrezAwxCm5-74" target="XxIpFaAC-THrezAwxCm5-66" edge="1">
          <mxGeometry relative="1" as="geometry" />
        </mxCell>
        <mxCell id="XxIpFaAC-THrezAwxCm5-74" value="Calculate Node,Edge &amp;amp; Save" style="rounded=0;whiteSpace=wrap;html=1;" parent="1" vertex="1">
          <mxGeometry x="573.5354838709676" y="2210" width="116.61290322580645" height="40.8" as="geometry" />
        </mxCell>
        <mxCell id="XxIpFaAC-THrezAwxCm5-75" style="edgeStyle=orthogonalEdgeStyle;rounded=0;orthogonalLoop=1;jettySize=auto;html=1;exitX=0.5;exitY=1;exitDx=0;exitDy=0;entryX=0.5;entryY=0;entryDx=0;entryDy=0;" parent="1" source="XxIpFaAC-THrezAwxCm5-76" target="XxIpFaAC-THrezAwxCm5-79" edge="1">
          <mxGeometry relative="1" as="geometry" />
        </mxCell>
        <mxCell id="XxIpFaAC-THrezAwxCm5-76" value="Check Graph Log File" style="rounded=0;whiteSpace=wrap;html=1;" parent="1" vertex="1">
          <mxGeometry x="321.58548387096795" y="2070" width="116.61290322580645" height="40.8" as="geometry" />
        </mxCell>
        <mxCell id="XxIpFaAC-THrezAwxCm5-77" style="edgeStyle=orthogonalEdgeStyle;rounded=0;orthogonalLoop=1;jettySize=auto;html=1;exitX=0.5;exitY=1;exitDx=0;exitDy=0;entryX=0.5;entryY=0;entryDx=0;entryDy=0;" parent="1" source="XxIpFaAC-THrezAwxCm5-79" target="XxIpFaAC-THrezAwxCm5-64" edge="1">
          <mxGeometry relative="1" as="geometry" />
        </mxCell>
        <mxCell id="XxIpFaAC-THrezAwxCm5-78" style="edgeStyle=orthogonalEdgeStyle;rounded=0;orthogonalLoop=1;jettySize=auto;html=1;exitX=1;exitY=0.5;exitDx=0;exitDy=0;" parent="1" source="XxIpFaAC-THrezAwxCm5-79" target="XxIpFaAC-THrezAwxCm5-81" edge="1">
          <mxGeometry relative="1" as="geometry" />
        </mxCell>
        <mxCell id="XxIpFaAC-THrezAwxCm5-79" value="Exist?" style="rhombus;whiteSpace=wrap;html=1;" parent="1" vertex="1">
          <mxGeometry x="344.7300000000001" y="2134" width="80" height="80" as="geometry" />
        </mxCell>
        <mxCell id="XxIpFaAC-THrezAwxCm5-80" style="edgeStyle=orthogonalEdgeStyle;rounded=0;orthogonalLoop=1;jettySize=auto;html=1;exitX=0.5;exitY=1;exitDx=0;exitDy=0;entryX=0.5;entryY=0;entryDx=0;entryDy=0;" parent="1" source="XxIpFaAC-THrezAwxCm5-81" target="XxIpFaAC-THrezAwxCm5-85" edge="1">
          <mxGeometry relative="1" as="geometry" />
        </mxCell>
        <mxCell id="XxIpFaAC-THrezAwxCm5-81" value="Load Race line Graph" style="rounded=0;whiteSpace=wrap;html=1;" parent="1" vertex="1">
          <mxGeometry x="418.7554838709678" y="2270" width="116.61290322580645" height="40.8" as="geometry" />
        </mxCell>
        <mxCell id="XxIpFaAC-THrezAwxCm5-82" style="edgeStyle=orthogonalEdgeStyle;rounded=0;orthogonalLoop=1;jettySize=auto;html=1;exitX=0.5;exitY=1;exitDx=0;exitDy=0;entryX=0.5;entryY=0;entryDx=0;entryDy=0;" parent="1" source="XxIpFaAC-THrezAwxCm5-119" target="XxIpFaAC-THrezAwxCm5-54" edge="1">
          <mxGeometry relative="1" as="geometry" />
        </mxCell>
        <mxCell id="XxIpFaAC-THrezAwxCm5-83" value="Global Template" style="shape=parallelogram;perimeter=parallelogramPerimeter;whiteSpace=wrap;html=1;fixedSize=1;" parent="1" vertex="1">
          <mxGeometry x="255.73000000000005" y="2550" width="120" height="40" as="geometry" />
        </mxCell>
        <mxCell id="XxIpFaAC-THrezAwxCm5-84" value="Global Template" style="shape=parallelogram;perimeter=parallelogramPerimeter;whiteSpace=wrap;html=1;fixedSize=1;" parent="1" vertex="1">
          <mxGeometry x="571.8299999999998" y="2420.8" width="120" height="40" as="geometry" />
        </mxCell>
        <mxCell id="XxIpFaAC-THrezAwxCm5-85" value="Global Template" style="shape=parallelogram;perimeter=parallelogramPerimeter;whiteSpace=wrap;html=1;fixedSize=1;" parent="1" vertex="1">
          <mxGeometry x="417.06" y="2340.8" width="120" height="40" as="geometry" />
        </mxCell>
        <mxCell id="XxIpFaAC-THrezAwxCm5-86" style="edgeStyle=orthogonalEdgeStyle;rounded=0;orthogonalLoop=1;jettySize=auto;html=1;exitX=0.5;exitY=1;exitDx=0;exitDy=0;entryX=0.5;entryY=0;entryDx=0;entryDy=0;" parent="1" source="XxIpFaAC-THrezAwxCm5-87" target="XxIpFaAC-THrezAwxCm5-89" edge="1">
          <mxGeometry relative="1" as="geometry" />
        </mxCell>
        <mxCell id="XxIpFaAC-THrezAwxCm5-87" value="Extract Local Template" style="rounded=0;whiteSpace=wrap;html=1;" parent="1" vertex="1">
          <mxGeometry x="819.8854838709677" y="2160" width="116.61290322580645" height="40.8" as="geometry" />
        </mxCell>
        <mxCell id="XxIpFaAC-THrezAwxCm5-88" style="edgeStyle=none;curved=1;rounded=0;orthogonalLoop=1;jettySize=auto;html=1;exitX=0.5;exitY=1;exitDx=0;exitDy=0;entryX=0.5;entryY=0;entryDx=0;entryDy=0;fontSize=12;startSize=8;endSize=8;" parent="1" source="XxIpFaAC-THrezAwxCm5-89" target="XxIpFaAC-THrezAwxCm5-93" edge="1">
          <mxGeometry relative="1" as="geometry" />
        </mxCell>
        <mxCell id="XxIpFaAC-THrezAwxCm5-89" value="Set Action&lt;br&gt;(straight, left, right )" style="rounded=0;whiteSpace=wrap;html=1;" parent="1" vertex="1">
          <mxGeometry x="820.7354838709678" y="2220" width="116.61290322580645" height="40.8" as="geometry" />
        </mxCell>
        <mxCell id="XxIpFaAC-THrezAwxCm5-90" value="no" style="text;html=1;align=center;verticalAlign=middle;whiteSpace=wrap;rounded=0;fontSize=16;" parent="1" vertex="1">
          <mxGeometry x="332.7300000000001" y="2214" width="60" height="30" as="geometry" />
        </mxCell>
        <mxCell id="XxIpFaAC-THrezAwxCm5-91" value="yes" style="text;html=1;align=center;verticalAlign=middle;whiteSpace=wrap;rounded=0;fontSize=16;" parent="1" vertex="1">
          <mxGeometry x="424.7300000000001" y="2145.4" width="60" height="30" as="geometry" />
        </mxCell>
        <mxCell id="XxIpFaAC-THrezAwxCm5-92" style="edgeStyle=none;curved=1;rounded=0;orthogonalLoop=1;jettySize=auto;html=1;exitX=0.5;exitY=1;exitDx=0;exitDy=0;entryX=0.5;entryY=0;entryDx=0;entryDy=0;fontSize=12;startSize=8;endSize=8;" parent="1" source="XxIpFaAC-THrezAwxCm5-93" target="XxIpFaAC-THrezAwxCm5-98" edge="1">
          <mxGeometry relative="1" as="geometry" />
        </mxCell>
        <mxCell id="XxIpFaAC-THrezAwxCm5-93" value="Graph Search" style="rounded=0;whiteSpace=wrap;html=1;" parent="1" vertex="1">
          <mxGeometry x="820.7354838709678" y="2280" width="116.61290322580645" height="40.8" as="geometry" />
        </mxCell>
        <mxCell id="XxIpFaAC-THrezAwxCm5-94" value="Calculate Velocity Profile" style="rounded=0;whiteSpace=wrap;html=1;" parent="1" vertex="1">
          <mxGeometry x="820.7354838709678" y="2410" width="116.61290322580645" height="40.8" as="geometry" />
        </mxCell>
        <mxCell id="XxIpFaAC-THrezAwxCm5-95" value="Local Path&amp;nbsp;" style="shape=parallelogram;perimeter=parallelogramPerimeter;whiteSpace=wrap;html=1;fixedSize=1;" parent="1" vertex="1">
          <mxGeometry x="746.1199999999999" y="2480" width="120" height="40" as="geometry" />
        </mxCell>
        <mxCell id="XxIpFaAC-THrezAwxCm5-96" value="Local Max velocity" style="shape=parallelogram;perimeter=parallelogramPerimeter;whiteSpace=wrap;html=1;fixedSize=1;" parent="1" vertex="1">
          <mxGeometry x="888.7599999999999" y="2480" width="120" height="40" as="geometry" />
        </mxCell>
        <mxCell id="XxIpFaAC-THrezAwxCm5-97" style="edgeStyle=none;curved=1;rounded=0;orthogonalLoop=1;jettySize=auto;html=1;exitX=0.5;exitY=1;exitDx=0;exitDy=0;entryX=0.5;entryY=0;entryDx=0;entryDy=0;fontSize=12;startSize=8;endSize=8;" parent="1" source="XxIpFaAC-THrezAwxCm5-98" target="XxIpFaAC-THrezAwxCm5-94" edge="1">
          <mxGeometry relative="1" as="geometry" />
        </mxCell>
        <mxCell id="XxIpFaAC-THrezAwxCm5-98" value="Calculate C2&lt;div&gt;Spline&lt;/div&gt;" style="rounded=0;whiteSpace=wrap;html=1;" parent="1" vertex="1">
          <mxGeometry x="820.7354838709678" y="2350" width="116.61290322580645" height="40.8" as="geometry" />
        </mxCell>
        <mxCell id="XxIpFaAC-THrezAwxCm5-99" style="edgeStyle=none;curved=1;rounded=0;orthogonalLoop=1;jettySize=auto;html=1;exitX=0.5;exitY=1;exitDx=0;exitDy=0;entryX=0.5;entryY=0;entryDx=0;entryDy=0;fontSize=12;startSize=8;endSize=8;" parent="1" source="XxIpFaAC-THrezAwxCm5-100" target="XxIpFaAC-THrezAwxCm5-102" edge="1">
          <mxGeometry relative="1" as="geometry" />
        </mxCell>
        <mxCell id="XxIpFaAC-THrezAwxCm5-100" value="Lap Check" style="shape=hexagon;perimeter=hexagonPerimeter2;whiteSpace=wrap;html=1;fixedSize=1;" parent="1" vertex="1">
          <mxGeometry x="680.7554838709677" y="888" width="116.61290322580645" height="54.4" as="geometry" />
        </mxCell>
        <mxCell id="XxIpFaAC-THrezAwxCm5-101" style="edgeStyle=none;curved=1;rounded=0;orthogonalLoop=1;jettySize=auto;html=1;exitX=0.5;exitY=1;exitDx=0;exitDy=0;entryX=0.5;entryY=0;entryDx=0;entryDy=0;fontSize=12;startSize=8;endSize=8;" parent="1" source="XxIpFaAC-THrezAwxCm5-102" target="XxIpFaAC-THrezAwxCm5-103" edge="1">
          <mxGeometry relative="1" as="geometry" />
        </mxCell>
        <mxCell id="XxIpFaAC-THrezAwxCm5-102" value="Update Lap Count" style="rounded=0;whiteSpace=wrap;html=1;" parent="1" vertex="1">
          <mxGeometry x="680.7554838709677" y="959.9999999999999" width="116.61290322580645" height="40.8" as="geometry" />
        </mxCell>
        <mxCell id="XxIpFaAC-THrezAwxCm5-103" value="Lap" style="shape=parallelogram;perimeter=parallelogramPerimeter;whiteSpace=wrap;html=1;fixedSize=1;" parent="1" vertex="1">
          <mxGeometry x="680.7554838709677" y="1020" width="116.61290322580645" height="40.8" as="geometry" />
        </mxCell>
        <mxCell id="XxIpFaAC-THrezAwxCm5-104" style="edgeStyle=orthogonalEdgeStyle;rounded=0;orthogonalLoop=1;jettySize=auto;html=1;exitX=0.5;exitY=1;exitDx=0;exitDy=0;" parent="1" source="XxIpFaAC-THrezAwxCm5-94" target="XxIpFaAC-THrezAwxCm5-95" edge="1">
          <mxGeometry relative="1" as="geometry">
            <mxPoint x="596.1999999999999" y="2320.8" as="sourcePoint" />
            <mxPoint x="806.2" y="2360.8" as="targetPoint" />
          </mxGeometry>
        </mxCell>
        <mxCell id="XxIpFaAC-THrezAwxCm5-105" style="edgeStyle=orthogonalEdgeStyle;rounded=0;orthogonalLoop=1;jettySize=auto;html=1;exitX=0.5;exitY=1;exitDx=0;exitDy=0;" parent="1" source="XxIpFaAC-THrezAwxCm5-94" target="XxIpFaAC-THrezAwxCm5-96" edge="1">
          <mxGeometry relative="1" as="geometry">
            <mxPoint x="869.45" y="2540.2" as="sourcePoint" />
            <mxPoint x="796.45" y="2569.2" as="targetPoint" />
          </mxGeometry>
        </mxCell>
        <mxCell id="XxIpFaAC-THrezAwxCm5-106" style="edgeStyle=none;curved=1;rounded=0;orthogonalLoop=1;jettySize=auto;html=1;exitX=0.5;exitY=1;exitDx=0;exitDy=0;fontSize=12;startSize=8;endSize=8;" parent="1" source="XxIpFaAC-THrezAwxCm5-107" target="XxIpFaAC-THrezAwxCm5-108" edge="1">
          <mxGeometry relative="1" as="geometry" />
        </mxCell>
        <mxCell id="XxIpFaAC-THrezAwxCm5-107" value="Initialize Check" style="shape=hexagon;perimeter=hexagonPerimeter2;whiteSpace=wrap;html=1;fixedSize=1;" parent="1" vertex="1">
          <mxGeometry x="625.65" y="1500" width="116.24" height="60" as="geometry" />
        </mxCell>
        <mxCell id="XxIpFaAC-THrezAwxCm5-108" value="Check Lap / Signal" style="rounded=0;whiteSpace=wrap;html=1;" parent="1" vertex="1">
          <mxGeometry x="625.6454838709677" y="1590" width="116.61290322580645" height="40.8" as="geometry" />
        </mxCell>
        <mxCell id="XxIpFaAC-THrezAwxCm5-109" value="" style="edgeStyle=none;curved=1;rounded=0;orthogonalLoop=1;jettySize=auto;html=1;exitX=0.5;exitY=1;exitDx=0;exitDy=0;entryX=0.5;entryY=0;entryDx=0;entryDy=0;fontSize=12;startSize=8;endSize=8;" parent="1" source="XxIpFaAC-THrezAwxCm5-108" target="XxIpFaAC-THrezAwxCm5-111" edge="1">
          <mxGeometry relative="1" as="geometry">
            <mxPoint x="871.66" y="2281" as="sourcePoint" />
            <mxPoint x="871.66" y="2360" as="targetPoint" />
            <Array as="points">
              <mxPoint x="683.66" y="1631" />
            </Array>
          </mxGeometry>
        </mxCell>
        <mxCell id="XxIpFaAC-THrezAwxCm5-110" style="edgeStyle=none;curved=1;rounded=0;orthogonalLoop=1;jettySize=auto;html=1;exitX=0.5;exitY=1;exitDx=0;exitDy=0;entryX=0.5;entryY=0;entryDx=0;entryDy=0;fontSize=12;startSize=8;endSize=8;" parent="1" source="XxIpFaAC-THrezAwxCm5-111" target="XxIpFaAC-THrezAwxCm5-115" edge="1">
          <mxGeometry relative="1" as="geometry" />
        </mxCell>
        <mxCell id="XxIpFaAC-THrezAwxCm5-111" value="Is Initial State?" style="rhombus;whiteSpace=wrap;html=1;" parent="1" vertex="1">
          <mxGeometry x="643.95" y="1650" width="80" height="80" as="geometry" />
        </mxCell>
        <mxCell id="XxIpFaAC-THrezAwxCm5-112" value="yes" style="text;html=1;align=center;verticalAlign=middle;whiteSpace=wrap;rounded=0;fontSize=16;" parent="1" vertex="1">
          <mxGeometry x="598.0300000000001" y="1660" width="60" height="30" as="geometry" />
        </mxCell>
        <mxCell id="XxIpFaAC-THrezAwxCm5-113" value="no" style="text;html=1;align=center;verticalAlign=middle;whiteSpace=wrap;rounded=0;fontSize=16;" parent="1" vertex="1">
          <mxGeometry x="670.6599999999999" y="1720" width="61.69" height="30" as="geometry" />
        </mxCell>
        <mxCell id="XxIpFaAC-THrezAwxCm5-114" style="edgeStyle=none;curved=1;rounded=0;orthogonalLoop=1;jettySize=auto;html=1;exitX=0.5;exitY=1;exitDx=0;exitDy=0;entryX=0.5;entryY=0;entryDx=0;entryDy=0;fontSize=12;startSize=8;endSize=8;" parent="1" source="XxIpFaAC-THrezAwxCm5-115" target="XxIpFaAC-THrezAwxCm5-119" edge="1">
          <mxGeometry relative="1" as="geometry" />
        </mxCell>
        <mxCell id="XxIpFaAC-THrezAwxCm5-115" value="Signal In ?" style="rhombus;whiteSpace=wrap;html=1;" parent="1" vertex="1">
          <mxGeometry x="644.01" y="1750" width="80" height="80" as="geometry" />
        </mxCell>
        <mxCell id="XxIpFaAC-THrezAwxCm5-116" value="yes" style="text;html=1;align=center;verticalAlign=middle;whiteSpace=wrap;rounded=0;fontSize=16;" parent="1" vertex="1">
          <mxGeometry x="596.12" y="1760" width="60" height="30" as="geometry" />
        </mxCell>
        <mxCell id="XxIpFaAC-THrezAwxCm5-117" value="no" style="text;html=1;align=center;verticalAlign=middle;whiteSpace=wrap;rounded=0;fontSize=16;" parent="1" vertex="1">
          <mxGeometry x="668.9699999999998" y="1820" width="61.69" height="30" as="geometry" />
        </mxCell>
        <mxCell id="XxIpFaAC-THrezAwxCm5-118" value="Set Start Pose" style="rounded=0;whiteSpace=wrap;html=1;" parent="1" vertex="1">
          <mxGeometry x="970.6554838709677" y="2079.6" width="116.61290322580645" height="40.8" as="geometry" />
        </mxCell>
        <mxCell id="XxIpFaAC-THrezAwxCm5-119" value="Goal Pass?" style="rhombus;whiteSpace=wrap;html=1;" parent="1" vertex="1">
          <mxGeometry x="644.01" y="1850" width="80" height="80" as="geometry" />
        </mxCell>
        <mxCell id="XxIpFaAC-THrezAwxCm5-120" value="yes" style="text;html=1;align=center;verticalAlign=middle;whiteSpace=wrap;rounded=0;fontSize=16;" parent="1" vertex="1">
          <mxGeometry x="584.01" y="1860.0000000000002" width="60" height="30" as="geometry" />
        </mxCell>
        <mxCell id="XxIpFaAC-THrezAwxCm5-121" value="no" style="text;html=1;align=center;verticalAlign=middle;whiteSpace=wrap;rounded=0;fontSize=16;" parent="1" vertex="1">
          <mxGeometry x="670.66" y="1920" width="61.69" height="30" as="geometry" />
        </mxCell>
        <mxCell id="XxIpFaAC-THrezAwxCm5-122" style="edgeStyle=orthogonalEdgeStyle;rounded=0;orthogonalLoop=1;jettySize=auto;html=1;exitX=0;exitY=0.5;exitDx=0;exitDy=0;entryX=0.5;entryY=0;entryDx=0;entryDy=0;" parent="1" source="XxIpFaAC-THrezAwxCm5-111" target="XxIpFaAC-THrezAwxCm5-52" edge="1">
          <mxGeometry relative="1" as="geometry">
            <mxPoint x="494.31" y="1710" as="sourcePoint" />
            <mxPoint x="546.31" y="1806" as="targetPoint" />
          </mxGeometry>
        </mxCell>
        <mxCell id="XxIpFaAC-THrezAwxCm5-123" style="edgeStyle=orthogonalEdgeStyle;rounded=0;orthogonalLoop=1;jettySize=auto;html=1;exitX=0;exitY=0.5;exitDx=0;exitDy=0;entryX=0.5;entryY=0;entryDx=0;entryDy=0;" parent="1" source="XxIpFaAC-THrezAwxCm5-115" target="XxIpFaAC-THrezAwxCm5-56" edge="1">
          <mxGeometry relative="1" as="geometry">
            <mxPoint x="898.27" y="1670" as="sourcePoint" />
            <mxPoint x="841.27" y="1970" as="targetPoint" />
            <Array as="points">
              <mxPoint x="631.66" y="1790" />
            </Array>
          </mxGeometry>
        </mxCell>
        <mxCell id="XxIpFaAC-THrezAwxCm5-124" style="edgeStyle=orthogonalEdgeStyle;rounded=0;orthogonalLoop=1;jettySize=auto;html=1;exitX=0;exitY=0.5;exitDx=0;exitDy=0;entryX=0.625;entryY=0;entryDx=0;entryDy=0;" parent="1" source="XxIpFaAC-THrezAwxCm5-119" target="XxIpFaAC-THrezAwxCm5-52" edge="1">
          <mxGeometry relative="1" as="geometry">
            <mxPoint x="820.31" y="1840" as="sourcePoint" />
            <mxPoint x="949.31" y="2040" as="targetPoint" />
          </mxGeometry>
        </mxCell>
        <mxCell id="XxIpFaAC-THrezAwxCm5-125" style="edgeStyle=none;curved=1;rounded=0;orthogonalLoop=1;jettySize=auto;html=1;exitX=0.5;exitY=1;exitDx=0;exitDy=0;entryX=0.5;entryY=0;entryDx=0;entryDy=0;fontSize=12;startSize=8;endSize=8;" parent="1" source="XxIpFaAC-THrezAwxCm5-127" target="XxIpFaAC-THrezAwxCm5-87" edge="1">
          <mxGeometry relative="1" as="geometry" />
        </mxCell>
        <mxCell id="XxIpFaAC-THrezAwxCm5-126" style="edgeStyle=none;curved=1;rounded=0;orthogonalLoop=1;jettySize=auto;html=1;exitX=1;exitY=0.5;exitDx=0;exitDy=0;entryX=0;entryY=0.5;entryDx=0;entryDy=0;fontSize=12;startSize=8;endSize=8;" parent="1" source="XxIpFaAC-THrezAwxCm5-127" target="XxIpFaAC-THrezAwxCm5-118" edge="1">
          <mxGeometry relative="1" as="geometry" />
        </mxCell>
        <mxCell id="XxIpFaAC-THrezAwxCm5-127" value="Need Init the Start pose?" style="rhombus;whiteSpace=wrap;html=1;" parent="1" vertex="1">
          <mxGeometry x="839.0400000000001" y="2060" width="80" height="80" as="geometry" />
        </mxCell>
        <mxCell id="XxIpFaAC-THrezAwxCm5-128" style="edgeStyle=orthogonalEdgeStyle;rounded=0;orthogonalLoop=1;jettySize=auto;html=1;exitX=0.5;exitY=1;exitDx=0;exitDy=0;entryX=1;entryY=0.5;entryDx=0;entryDy=0;" parent="1" source="XxIpFaAC-THrezAwxCm5-118" target="XxIpFaAC-THrezAwxCm5-87" edge="1">
          <mxGeometry relative="1" as="geometry">
            <mxPoint x="1260.59" y="2284.8" as="sourcePoint" />
            <mxPoint x="1312.59" y="2380.8" as="targetPoint" />
          </mxGeometry>
        </mxCell>
        <mxCell id="XxIpFaAC-THrezAwxCm5-129" value="yes" style="text;html=1;align=center;verticalAlign=middle;whiteSpace=wrap;rounded=0;fontSize=16;" parent="1" vertex="1">
          <mxGeometry x="910.66" y="2070" width="60" height="30" as="geometry" />
        </mxCell>
        <mxCell id="XxIpFaAC-THrezAwxCm5-130" value="no" style="text;html=1;align=center;verticalAlign=middle;whiteSpace=wrap;rounded=0;fontSize=16;" parent="1" vertex="1">
          <mxGeometry x="874.81" y="2130" width="61.69" height="30" as="geometry" />
        </mxCell>
        <mxCell id="XxIpFaAC-THrezAwxCm5-131" value="System mode,&amp;nbsp;&lt;span style=&quot;background-color: initial;&quot;&gt;KIAPI Signal,&lt;/span&gt;&lt;div&gt;Lap Count,&amp;nbsp;&lt;span style=&quot;background-color: initial;&quot;&gt;Obstacle List,&lt;/span&gt;&lt;/div&gt;&lt;div&gt;Velocity, Heading, Local Pose, Accel, Brake,&amp;nbsp;&lt;/div&gt;" style="shape=offPageConnector;whiteSpace=wrap;html=1;size=0.3333333333333333;" parent="1" vertex="1">
          <mxGeometry x="581" y="1120" width="178" height="90" as="geometry" />
        </mxCell>
        <mxCell id="XxIpFaAC-THrezAwxCm5-132" value="System Mode, Map Name&lt;div&gt;Velocity, Heading&lt;/div&gt;&lt;div&gt;Local Pose&lt;/div&gt;" style="shape=offPageConnector;whiteSpace=wrap;html=1;size=0.3333333333333333;" parent="1" vertex="1">
          <mxGeometry x="1146.61" y="1120" width="178" height="90" as="geometry" />
        </mxCell>
        <mxCell id="XxIpFaAC-THrezAwxCm5-133" value="Global Path,&lt;div&gt;Local Path&lt;/div&gt;&lt;div&gt;Local Kappa, Velocity&lt;/div&gt;" style="shape=offPageConnector;whiteSpace=wrap;html=1;size=0.4444444444444444;" parent="1" vertex="1">
          <mxGeometry x="552.66" y="2610" width="178" height="90" as="geometry" />
        </mxCell>
        <mxCell id="XxIpFaAC-THrezAwxCm5-134" value="Lanlet Map,&amp;nbsp;&lt;div&gt;Lane Data&lt;/div&gt;" style="shape=offPageConnector;whiteSpace=wrap;html=1;size=0.3333333333333333;" parent="1" vertex="1">
          <mxGeometry x="1166.61" y="1940" width="178" height="90" as="geometry" />
        </mxCell>
        <mxCell id="XxIpFaAC-THrezAwxCm5-135" style="edgeStyle=none;curved=1;rounded=0;orthogonalLoop=1;jettySize=auto;html=1;exitX=0.5;exitY=1;exitDx=0;exitDy=0;entryX=0.5;entryY=0;entryDx=0;entryDy=0;fontSize=12;startSize=8;endSize=8;" parent="1" source="XxIpFaAC-THrezAwxCm5-136" target="XxIpFaAC-THrezAwxCm5-139" edge="1">
          <mxGeometry relative="1" as="geometry" />
        </mxCell>
        <mxCell id="XxIpFaAC-THrezAwxCm5-136" value="Initialize Check" style="shape=hexagon;perimeter=hexagonPerimeter2;whiteSpace=wrap;html=1;fixedSize=1;" parent="1" vertex="1">
          <mxGeometry x="1186.61" y="1500" width="116.24" height="60" as="geometry" />
        </mxCell>
        <mxCell id="XxIpFaAC-THrezAwxCm5-137" style="edgeStyle=none;curved=1;rounded=0;orthogonalLoop=1;jettySize=auto;html=1;exitX=0;exitY=0.5;exitDx=0;exitDy=0;entryX=1;entryY=0.5;entryDx=0;entryDy=0;fontSize=12;startSize=8;endSize=8;" parent="1" source="XxIpFaAC-THrezAwxCm5-139" target="XxIpFaAC-THrezAwxCm5-140" edge="1">
          <mxGeometry relative="1" as="geometry" />
        </mxCell>
        <mxCell id="XxIpFaAC-THrezAwxCm5-138" style="edgeStyle=none;curved=1;rounded=0;orthogonalLoop=1;jettySize=auto;html=1;exitX=0.5;exitY=1;exitDx=0;exitDy=0;entryX=0.5;entryY=0;entryDx=0;entryDy=0;fontSize=12;startSize=8;endSize=8;" parent="1" source="XxIpFaAC-THrezAwxCm5-139" target="XxIpFaAC-THrezAwxCm5-142" edge="1">
          <mxGeometry relative="1" as="geometry" />
        </mxCell>
        <mxCell id="XxIpFaAC-THrezAwxCm5-139" value="Is Initial State?" style="rhombus;whiteSpace=wrap;html=1;" parent="1" vertex="1">
          <mxGeometry x="1204.7299999999998" y="1590" width="80" height="80" as="geometry" />
        </mxCell>
        <mxCell id="XxIpFaAC-THrezAwxCm5-140" value="Map construct &amp;amp; Publish" style="rounded=0;whiteSpace=wrap;html=1;" parent="1" vertex="1">
          <mxGeometry x="1059.9954838709675" y="1609.5999999999997" width="116.61290322580645" height="40.8" as="geometry" />
        </mxCell>
        <mxCell id="XxIpFaAC-THrezAwxCm5-141" style="edgeStyle=none;curved=1;rounded=0;orthogonalLoop=1;jettySize=auto;html=1;exitX=0.5;exitY=1;exitDx=0;exitDy=0;entryX=0.5;entryY=0;entryDx=0;entryDy=0;fontSize=12;startSize=8;endSize=8;" parent="1" source="XxIpFaAC-THrezAwxCm5-142" target="XxIpFaAC-THrezAwxCm5-145" edge="1">
          <mxGeometry relative="1" as="geometry" />
        </mxCell>
        <mxCell id="XxIpFaAC-THrezAwxCm5-142" value="&lt;div&gt;&lt;span style=&quot;background-color: initial;&quot;&gt;Lanelet Matching&lt;/span&gt;&lt;/div&gt;&lt;div&gt;&lt;span style=&quot;background-color: initial;&quot;&gt;by Local Pose&lt;/span&gt;&lt;br&gt;&lt;/div&gt;" style="rounded=0;whiteSpace=wrap;html=1;" parent="1" vertex="1">
          <mxGeometry x="1186.24" y="1710" width="116.61" height="45.4" as="geometry" />
        </mxCell>
        <mxCell id="XxIpFaAC-THrezAwxCm5-143" value="Lane Number" style="shape=parallelogram;perimeter=parallelogramPerimeter;whiteSpace=wrap;html=1;fixedSize=1;" parent="1" vertex="1">
          <mxGeometry x="1186.24" y="1870" width="120" height="40" as="geometry" />
        </mxCell>
        <mxCell id="XxIpFaAC-THrezAwxCm5-144" style="edgeStyle=none;curved=1;rounded=0;orthogonalLoop=1;jettySize=auto;html=1;exitX=0.5;exitY=1;exitDx=0;exitDy=0;entryX=0.5;entryY=0;entryDx=0;entryDy=0;fontSize=12;startSize=8;endSize=8;" parent="1" source="XxIpFaAC-THrezAwxCm5-145" target="XxIpFaAC-THrezAwxCm5-143" edge="1">
          <mxGeometry relative="1" as="geometry" />
        </mxCell>
        <mxCell id="XxIpFaAC-THrezAwxCm5-145" value="&lt;div&gt;Get lane number&lt;/div&gt;" style="rounded=0;whiteSpace=wrap;html=1;" parent="1" vertex="1">
          <mxGeometry x="1186.24" y="1790" width="116.61" height="45.4" as="geometry" />
        </mxCell>
        <mxCell id="XxIpFaAC-THrezAwxCm5-146" style="edgeStyle=orthogonalEdgeStyle;rounded=0;orthogonalLoop=1;jettySize=auto;html=1;exitX=0.5;exitY=1;exitDx=0;exitDy=0;" parent="1" source="XxIpFaAC-THrezAwxCm5-140" target="XxIpFaAC-THrezAwxCm5-142" edge="1">
          <mxGeometry relative="1" as="geometry">
            <mxPoint x="1066.61" y="1730" as="sourcePoint" />
            <mxPoint x="1006.4399999999998" y="1912.7" as="targetPoint" />
            <Array as="points">
              <mxPoint x="1118.61" y="1733" />
            </Array>
          </mxGeometry>
        </mxCell>
        <mxCell id="XxIpFaAC-THrezAwxCm5-147" value="no" style="text;html=1;align=center;verticalAlign=middle;whiteSpace=wrap;rounded=0;fontSize=16;" parent="1" vertex="1">
          <mxGeometry x="1234.9199999999998" y="1670" width="61.69" height="30" as="geometry" />
        </mxCell>
        <mxCell id="XxIpFaAC-THrezAwxCm5-148" style="edgeStyle=none;curved=1;rounded=0;orthogonalLoop=1;jettySize=auto;html=1;exitX=1;exitY=0.5;exitDx=0;exitDy=0;fontSize=12;startSize=8;endSize=8;" parent="1" source="XxIpFaAC-THrezAwxCm5-112" target="XxIpFaAC-THrezAwxCm5-112" edge="1">
          <mxGeometry relative="1" as="geometry" />
        </mxCell>
        <mxCell id="XxIpFaAC-THrezAwxCm5-149" style="edgeStyle=none;curved=1;rounded=0;orthogonalLoop=1;jettySize=auto;html=1;exitX=1;exitY=0.5;exitDx=0;exitDy=0;fontSize=12;startSize=8;endSize=8;" parent="1" source="XxIpFaAC-THrezAwxCm5-150" target="XxIpFaAC-THrezAwxCm5-150" edge="1">
          <mxGeometry relative="1" as="geometry" />
        </mxCell>
        <mxCell id="XxIpFaAC-THrezAwxCm5-150" value="yes" style="text;html=1;align=center;verticalAlign=middle;whiteSpace=wrap;rounded=0;fontSize=16;" parent="1" vertex="1">
          <mxGeometry x="1166.61" y="1595.4" width="60" height="30" as="geometry" />
        </mxCell>
        <mxCell id="XxIpFaAC-THrezAwxCm5-151" value="Local Pose, Velocity, Heading, Local Path, Obstacle List" style="shape=offPageConnector;whiteSpace=wrap;html=1;size=0.3333333333333333;" parent="1" vertex="1">
          <mxGeometry x="1387.61" y="1120" width="178" height="90" as="geometry" />
        </mxCell>
        <mxCell id="XxIpFaAC-THrezAwxCm5-152" style="edgeStyle=none;curved=1;rounded=0;orthogonalLoop=1;jettySize=auto;html=1;exitX=0.5;exitY=1;exitDx=0;exitDy=0;entryX=0.5;entryY=0;entryDx=0;entryDy=0;fontSize=12;startSize=8;endSize=8;" parent="1" source="XxIpFaAC-THrezAwxCm5-153" edge="1">
          <mxGeometry relative="1" as="geometry">
            <mxPoint x="1474.915" y="1590" as="targetPoint" />
          </mxGeometry>
        </mxCell>
        <mxCell id="XxIpFaAC-THrezAwxCm5-153" value="Make Visual Marker" style="shape=hexagon;perimeter=hexagonPerimeter2;whiteSpace=wrap;html=1;fixedSize=1;" parent="1" vertex="1">
          <mxGeometry x="1418.49" y="1500" width="116.24" height="60" as="geometry" />
        </mxCell>
        <mxCell id="XxIpFaAC-THrezAwxCm5-154" style="edgeStyle=none;curved=1;rounded=0;orthogonalLoop=1;jettySize=auto;html=1;exitX=0.5;exitY=1;exitDx=0;exitDy=0;entryX=0.5;entryY=0;entryDx=0;entryDy=0;fontSize=12;startSize=8;endSize=8;" parent="1" source="XxIpFaAC-THrezAwxCm5-155" target="XxIpFaAC-THrezAwxCm5-157" edge="1">
          <mxGeometry relative="1" as="geometry" />
        </mxCell>
        <mxCell id="XxIpFaAC-THrezAwxCm5-155" value="&lt;div&gt;Create Marker&lt;/div&gt;" style="rounded=0;whiteSpace=wrap;html=1;" parent="1" vertex="1">
          <mxGeometry x="1416.61" y="1590" width="116.61" height="45.4" as="geometry" />
        </mxCell>
        <mxCell id="XxIpFaAC-THrezAwxCm5-156" style="edgeStyle=none;curved=1;rounded=0;orthogonalLoop=1;jettySize=auto;html=1;exitX=0.5;exitY=1;exitDx=0;exitDy=0;entryX=0.5;entryY=0;entryDx=0;entryDy=0;fontSize=12;startSize=8;endSize=8;" parent="1" source="XxIpFaAC-THrezAwxCm5-157" edge="1">
          <mxGeometry relative="1" as="geometry">
            <mxPoint x="1474.9149999999997" y="1730" as="targetPoint" />
          </mxGeometry>
        </mxCell>
        <mxCell id="XxIpFaAC-THrezAwxCm5-157" value="&lt;div&gt;World Transform&lt;/div&gt;" style="rounded=0;whiteSpace=wrap;html=1;" parent="1" vertex="1">
          <mxGeometry x="1416.61" y="1660" width="116.61" height="45.4" as="geometry" />
        </mxCell>
        <mxCell id="XxIpFaAC-THrezAwxCm5-158" value="Visualization&lt;div&gt;Markers&lt;/div&gt;" style="shape=parallelogram;perimeter=parallelogramPerimeter;whiteSpace=wrap;html=1;fixedSize=1;" parent="1" vertex="1">
          <mxGeometry x="1414.9099999999999" y="1730" width="120" height="40" as="geometry" />
        </mxCell>
        <mxCell id="XxIpFaAC-THrezAwxCm5-159" value="Car Marker, Car Info String,&lt;br&gt;Local Path Marker&lt;br&gt;Obstacles Markers" style="shape=offPageConnector;whiteSpace=wrap;html=1;size=0.3333333333333333;" parent="1" vertex="1">
          <mxGeometry x="1385.9099999999999" y="1800" width="178" height="90" as="geometry" />
        </mxCell>
        <mxCell id="XxIpFaAC-THrezAwxCm5-160" value="Velocity, Steer, Accel, Brake, Gear&lt;div&gt;Planned Velocity, Steer, Accel, Brake,&lt;br&gt;System Mode, Lap Count, KIAPI Signal,&lt;/div&gt;" style="shape=offPageConnector;whiteSpace=wrap;html=1;size=0.3333333333333333;" parent="1" vertex="1">
          <mxGeometry x="1620" y="1070" width="178" height="140" as="geometry" />
        </mxCell>
        <mxCell id="XxIpFaAC-THrezAwxCm5-161" value="User Input Mode, KIAPI Signal&lt;div&gt;( for test )&lt;/div&gt;" style="shape=offPageConnector;whiteSpace=wrap;html=1;size=0.3333333333333333;" parent="1" vertex="1">
          <mxGeometry x="1620.9999999999998" y="1780" width="178" height="90" as="geometry" />
        </mxCell>
        <mxCell id="XxIpFaAC-THrezAwxCm5-162" style="edgeStyle=none;curved=1;rounded=0;orthogonalLoop=1;jettySize=auto;html=1;exitX=0.5;exitY=1;exitDx=0;exitDy=0;entryX=0.5;entryY=0;entryDx=0;entryDy=0;fontSize=12;startSize=8;endSize=8;" parent="1" source="XxIpFaAC-THrezAwxCm5-163" edge="1">
          <mxGeometry relative="1" as="geometry">
            <mxPoint x="1708.3050000000003" y="1590" as="targetPoint" />
          </mxGeometry>
        </mxCell>
        <mxCell id="XxIpFaAC-THrezAwxCm5-163" value="Set Qt Widgets" style="shape=hexagon;perimeter=hexagonPerimeter2;whiteSpace=wrap;html=1;fixedSize=1;" parent="1" vertex="1">
          <mxGeometry x="1651.88" y="1500" width="116.24" height="60" as="geometry" />
        </mxCell>
        <mxCell id="XxIpFaAC-THrezAwxCm5-164" value="Set Datas to Widget" style="rounded=0;whiteSpace=wrap;html=1;" parent="1" vertex="1">
          <mxGeometry x="1650" y="1590" width="116.61" height="45.4" as="geometry" />
        </mxCell>
        <mxCell id="XxIpFaAC-THrezAwxCm5-165" value="&lt;ul&gt;&lt;li&gt;RViz&lt;/li&gt;&lt;li&gt;Speedometer Widget&lt;/li&gt;&lt;li&gt;Speed Graph&lt;/li&gt;&lt;li&gt;Steer Graph&lt;/li&gt;&lt;li&gt;Wheel Widget&lt;/li&gt;&lt;li&gt;Gear Widget&lt;/li&gt;&lt;li&gt;System Label&lt;/li&gt;&lt;li&gt;CAN Table&lt;/li&gt;&lt;/ul&gt;" style="text;strokeColor=none;fillColor=none;html=1;whiteSpace=wrap;verticalAlign=middle;overflow=hidden;" parent="1" vertex="1">
          <mxGeometry x="1649.21" y="1635.4" width="188.12" height="130" as="geometry" />
        </mxCell>
        <mxCell id="XxIpFaAC-THrezAwxCm5-166" value="System mode, Planned Velocity, Local Pose, Velocity, Heading, Planned Route" style="shape=offPageConnector;whiteSpace=wrap;html=1;size=0.3333333333333333;" parent="1" vertex="1">
          <mxGeometry x="-60.7" y="1120" width="178" height="90" as="geometry" />
        </mxCell>
        <mxCell id="XxIpFaAC-THrezAwxCm5-167" value="Target Actuator&lt;div&gt;(Steer, Accel ,Brake)&amp;nbsp;&lt;/div&gt;" style="shape=offPageConnector;whiteSpace=wrap;html=1;size=0.4444444444444444;" parent="1" vertex="1">
          <mxGeometry x="-60.7" y="1972.2" width="178" height="90" as="geometry" />
        </mxCell>
        <mxCell id="XxIpFaAC-THrezAwxCm5-168" style="edgeStyle=none;curved=1;rounded=0;orthogonalLoop=1;jettySize=auto;html=1;exitX=0.5;exitY=1;exitDx=0;exitDy=0;entryX=0.5;entryY=0;entryDx=0;entryDy=0;fontSize=12;startSize=8;endSize=8;" parent="1" source="XxIpFaAC-THrezAwxCm5-169" target="XxIpFaAC-THrezAwxCm5-171" edge="1">
          <mxGeometry relative="1" as="geometry" />
        </mxCell>
        <mxCell id="XxIpFaAC-THrezAwxCm5-169" value="ROS Handler" style="shape=hexagon;perimeter=hexagonPerimeter2;whiteSpace=wrap;html=1;fixedSize=1;" parent="1" vertex="1">
          <mxGeometry x="624.99" y="1330" width="116.24" height="60" as="geometry" />
        </mxCell>
        <mxCell id="XxIpFaAC-THrezAwxCm5-170" style="edgeStyle=none;curved=1;rounded=0;orthogonalLoop=1;jettySize=auto;html=1;exitX=0.5;exitY=1;exitDx=0;exitDy=0;fontSize=12;startSize=8;endSize=8;" parent="1" source="XxIpFaAC-THrezAwxCm5-171" target="XxIpFaAC-THrezAwxCm5-107" edge="1">
          <mxGeometry relative="1" as="geometry" />
        </mxCell>
        <mxCell id="XxIpFaAC-THrezAwxCm5-171" value="Parse Msgs" style="rounded=0;whiteSpace=wrap;html=1;" parent="1" vertex="1">
          <mxGeometry x="623.1099999999999" y="1420" width="116.61" height="45.4" as="geometry" />
        </mxCell>
        <mxCell id="XxIpFaAC-THrezAwxCm5-172" style="edgeStyle=none;curved=1;rounded=0;orthogonalLoop=1;jettySize=auto;html=1;exitX=0.5;exitY=1;exitDx=0;exitDy=0;entryX=0.5;entryY=0;entryDx=0;entryDy=0;fontSize=12;startSize=8;endSize=8;" parent="1" source="XxIpFaAC-THrezAwxCm5-173" target="XxIpFaAC-THrezAwxCm5-175" edge="1">
          <mxGeometry relative="1" as="geometry" />
        </mxCell>
        <mxCell id="XxIpFaAC-THrezAwxCm5-173" value="ROS Handler" style="shape=hexagon;perimeter=hexagonPerimeter2;whiteSpace=wrap;html=1;fixedSize=1;" parent="1" vertex="1">
          <mxGeometry x="1421.88" y="1330" width="116.24" height="60" as="geometry" />
        </mxCell>
        <mxCell id="XxIpFaAC-THrezAwxCm5-174" style="edgeStyle=none;curved=1;rounded=0;orthogonalLoop=1;jettySize=auto;html=1;exitX=0.5;exitY=1;exitDx=0;exitDy=0;fontSize=12;startSize=8;endSize=8;" parent="1" source="XxIpFaAC-THrezAwxCm5-175" edge="1">
          <mxGeometry relative="1" as="geometry">
            <mxPoint x="1479.8899999999999" y="1500" as="targetPoint" />
          </mxGeometry>
        </mxCell>
        <mxCell id="XxIpFaAC-THrezAwxCm5-175" value="Parse Msgs" style="rounded=0;whiteSpace=wrap;html=1;" parent="1" vertex="1">
          <mxGeometry x="1420" y="1420" width="116.61" height="45.4" as="geometry" />
        </mxCell>
        <mxCell id="XxIpFaAC-THrezAwxCm5-176" style="edgeStyle=none;curved=1;rounded=0;orthogonalLoop=1;jettySize=auto;html=1;exitX=0.5;exitY=1;exitDx=0;exitDy=0;entryX=0.5;entryY=0;entryDx=0;entryDy=0;fontSize=12;startSize=8;endSize=8;" parent="1" source="XxIpFaAC-THrezAwxCm5-177" target="XxIpFaAC-THrezAwxCm5-179" edge="1">
          <mxGeometry relative="1" as="geometry" />
        </mxCell>
        <mxCell id="XxIpFaAC-THrezAwxCm5-177" value="ROS Handler" style="shape=hexagon;perimeter=hexagonPerimeter2;whiteSpace=wrap;html=1;fixedSize=1;" parent="1" vertex="1">
          <mxGeometry x="1661.88" y="1330" width="116.24" height="60" as="geometry" />
        </mxCell>
        <mxCell id="XxIpFaAC-THrezAwxCm5-178" style="edgeStyle=none;curved=1;rounded=0;orthogonalLoop=1;jettySize=auto;html=1;exitX=0.5;exitY=1;exitDx=0;exitDy=0;fontSize=12;startSize=8;endSize=8;" parent="1" source="XxIpFaAC-THrezAwxCm5-179" edge="1">
          <mxGeometry relative="1" as="geometry">
            <mxPoint x="1719.8899999999999" y="1500" as="targetPoint" />
          </mxGeometry>
        </mxCell>
        <mxCell id="XxIpFaAC-THrezAwxCm5-179" value="Parse Msgs" style="rounded=0;whiteSpace=wrap;html=1;" parent="1" vertex="1">
          <mxGeometry x="1660" y="1420" width="116.61" height="45.4" as="geometry" />
        </mxCell>
        <mxCell id="XxIpFaAC-THrezAwxCm5-180" style="edgeStyle=none;curved=1;rounded=0;orthogonalLoop=1;jettySize=auto;html=1;exitX=0.5;exitY=1;exitDx=0;exitDy=0;entryX=0.5;entryY=0;entryDx=0;entryDy=0;fontSize=12;startSize=8;endSize=8;" parent="1" source="XxIpFaAC-THrezAwxCm5-181" target="XxIpFaAC-THrezAwxCm5-183" edge="1">
          <mxGeometry relative="1" as="geometry" />
        </mxCell>
        <mxCell id="XxIpFaAC-THrezAwxCm5-181" value="ROS Handler" style="shape=hexagon;perimeter=hexagonPerimeter2;whiteSpace=wrap;html=1;fixedSize=1;" parent="1" vertex="1">
          <mxGeometry x="1181.88" y="1330" width="116.24" height="60" as="geometry" />
        </mxCell>
        <mxCell id="XxIpFaAC-THrezAwxCm5-182" style="edgeStyle=none;curved=1;rounded=0;orthogonalLoop=1;jettySize=auto;html=1;exitX=0.5;exitY=1;exitDx=0;exitDy=0;fontSize=12;startSize=8;endSize=8;" parent="1" source="XxIpFaAC-THrezAwxCm5-183" edge="1">
          <mxGeometry relative="1" as="geometry">
            <mxPoint x="1239.8899999999999" y="1500" as="targetPoint" />
          </mxGeometry>
        </mxCell>
        <mxCell id="XxIpFaAC-THrezAwxCm5-183" value="Parse Msgs" style="rounded=0;whiteSpace=wrap;html=1;" parent="1" vertex="1">
          <mxGeometry x="1180" y="1420" width="116.61" height="45.4" as="geometry" />
        </mxCell>
        <mxCell id="XxIpFaAC-THrezAwxCm5-184" style="edgeStyle=none;curved=1;rounded=0;orthogonalLoop=1;jettySize=auto;html=1;exitX=0.5;exitY=1;exitDx=0;exitDy=0;entryX=0.5;entryY=0;entryDx=0;entryDy=0;fontSize=12;startSize=8;endSize=8;" parent="1" source="XxIpFaAC-THrezAwxCm5-185" target="XxIpFaAC-THrezAwxCm5-186" edge="1">
          <mxGeometry relative="1" as="geometry" />
        </mxCell>
        <mxCell id="XxIpFaAC-THrezAwxCm5-185" value="ROS Handler" style="shape=hexagon;perimeter=hexagonPerimeter2;whiteSpace=wrap;html=1;fixedSize=1;" parent="1" vertex="1">
          <mxGeometry x="-28.120000000000005" y="1340" width="116.24" height="60" as="geometry" />
        </mxCell>
        <mxCell id="XxIpFaAC-THrezAwxCm5-186" value="Parse Msgs" style="rounded=0;whiteSpace=wrap;html=1;" parent="1" vertex="1">
          <mxGeometry x="-30.000000000000114" y="1430" width="116.61" height="45.4" as="geometry" />
        </mxCell>
        <mxCell id="XxIpFaAC-THrezAwxCm5-187" style="edgeStyle=none;curved=1;rounded=0;orthogonalLoop=1;jettySize=auto;html=1;exitX=0.5;exitY=1;exitDx=0;exitDy=0;entryX=0.5;entryY=0;entryDx=0;entryDy=0;fontSize=12;startSize=8;endSize=8;" parent="1" source="XxIpFaAC-THrezAwxCm5-188" target="XxIpFaAC-THrezAwxCm5-189" edge="1">
          <mxGeometry relative="1" as="geometry" />
        </mxCell>
        <mxCell id="XxIpFaAC-THrezAwxCm5-188" value="ROS Handler" style="shape=hexagon;perimeter=hexagonPerimeter2;whiteSpace=wrap;html=1;fixedSize=1;" parent="1" vertex="1">
          <mxGeometry x="-378.12" y="1330" width="116.24" height="60" as="geometry" />
        </mxCell>
        <mxCell id="XxIpFaAC-THrezAwxCm5-189" value="Parse Msgs" style="rounded=0;whiteSpace=wrap;html=1;" parent="1" vertex="1">
          <mxGeometry x="-380.0000000000001" y="1420" width="116.61" height="45.4" as="geometry" />
        </mxCell>
        <mxCell id="XxIpFaAC-THrezAwxCm5-190" style="edgeStyle=none;curved=1;rounded=0;orthogonalLoop=1;jettySize=auto;html=1;exitX=0.5;exitY=1;exitDx=0;exitDy=0;entryX=0.5;entryY=0;entryDx=0;entryDy=0;fontSize=12;startSize=8;endSize=8;" parent="1" source="XxIpFaAC-THrezAwxCm5-191" target="XxIpFaAC-THrezAwxCm5-193" edge="1">
          <mxGeometry relative="1" as="geometry" />
        </mxCell>
        <mxCell id="XxIpFaAC-THrezAwxCm5-191" value="APID Algorithm" style="shape=hexagon;perimeter=hexagonPerimeter2;whiteSpace=wrap;html=1;fixedSize=1;" parent="1" vertex="1">
          <mxGeometry x="-118.12" y="1534.6" width="116.24" height="60" as="geometry" />
        </mxCell>
        <mxCell id="XxIpFaAC-THrezAwxCm5-192" style="edgeStyle=none;curved=1;rounded=0;orthogonalLoop=1;jettySize=auto;html=1;exitX=0.5;exitY=1;exitDx=0;exitDy=0;entryX=0.5;entryY=0;entryDx=0;entryDy=0;fontSize=12;startSize=8;endSize=8;" parent="1" source="XxIpFaAC-THrezAwxCm5-193" target="XxIpFaAC-THrezAwxCm5-195" edge="1">
          <mxGeometry relative="1" as="geometry" />
        </mxCell>
        <mxCell id="XxIpFaAC-THrezAwxCm5-193" value="Save Old data" style="rounded=0;whiteSpace=wrap;html=1;" parent="1" vertex="1">
          <mxGeometry x="-120.00000000000011" y="1624.6" width="116.61" height="45.4" as="geometry" />
        </mxCell>
        <mxCell id="XxIpFaAC-THrezAwxCm5-194" style="edgeStyle=none;curved=1;rounded=0;orthogonalLoop=1;jettySize=auto;html=1;exitX=0.5;exitY=1;exitDx=0;exitDy=0;entryX=0.5;entryY=0;entryDx=0;entryDy=0;fontSize=12;startSize=8;endSize=8;" parent="1" source="XxIpFaAC-THrezAwxCm5-195" target="XxIpFaAC-THrezAwxCm5-197" edge="1">
          <mxGeometry relative="1" as="geometry" />
        </mxCell>
        <mxCell id="XxIpFaAC-THrezAwxCm5-195" value="Calculate ddk, dk" style="rounded=0;whiteSpace=wrap;html=1;" parent="1" vertex="1">
          <mxGeometry x="-120.00000000000011" y="1694.6" width="116.61" height="45.4" as="geometry" />
        </mxCell>
        <mxCell id="XxIpFaAC-THrezAwxCm5-196" style="edgeStyle=none;curved=1;rounded=0;orthogonalLoop=1;jettySize=auto;html=1;exitX=0.5;exitY=1;exitDx=0;exitDy=0;entryX=0.5;entryY=0;entryDx=0;entryDy=0;fontSize=12;startSize=8;endSize=8;" parent="1" source="XxIpFaAC-THrezAwxCm5-197" target="XxIpFaAC-THrezAwxCm5-199" edge="1">
          <mxGeometry relative="1" as="geometry" />
        </mxCell>
        <mxCell id="XxIpFaAC-THrezAwxCm5-197" value="Update Parameter" style="rounded=0;whiteSpace=wrap;html=1;" parent="1" vertex="1">
          <mxGeometry x="-120.00000000000011" y="1764.6" width="116.61" height="45.4" as="geometry" />
        </mxCell>
        <mxCell id="XxIpFaAC-THrezAwxCm5-198" style="edgeStyle=none;curved=1;rounded=0;orthogonalLoop=1;jettySize=auto;html=1;exitX=0.5;exitY=1;exitDx=0;exitDy=0;entryX=0.5;entryY=0;entryDx=0;entryDy=0;fontSize=12;startSize=8;endSize=8;" parent="1" source="XxIpFaAC-THrezAwxCm5-199" target="XxIpFaAC-THrezAwxCm5-200" edge="1">
          <mxGeometry relative="1" as="geometry" />
        </mxCell>
        <mxCell id="XxIpFaAC-THrezAwxCm5-199" value="Calculate Output" style="rounded=0;whiteSpace=wrap;html=1;" parent="1" vertex="1">
          <mxGeometry x="-120.00000000000011" y="1834.6" width="116.61" height="45.4" as="geometry" />
        </mxCell>
        <mxCell id="XxIpFaAC-THrezAwxCm5-200" value="Accel, Brake" style="shape=parallelogram;perimeter=parallelogramPerimeter;whiteSpace=wrap;html=1;fixedSize=1;" parent="1" vertex="1">
          <mxGeometry x="-123.38999999999999" y="1904.6000000000001" width="120" height="40" as="geometry" />
        </mxCell>
        <mxCell id="XxIpFaAC-THrezAwxCm5-201" style="edgeStyle=none;curved=1;rounded=0;orthogonalLoop=1;jettySize=auto;html=1;exitX=0.5;exitY=1;exitDx=0;exitDy=0;entryX=0.5;entryY=0;entryDx=0;entryDy=0;fontSize=12;startSize=8;endSize=8;" parent="1" source="XxIpFaAC-THrezAwxCm5-202" target="XxIpFaAC-THrezAwxCm5-204" edge="1">
          <mxGeometry relative="1" as="geometry" />
        </mxCell>
        <mxCell id="XxIpFaAC-THrezAwxCm5-202" value="Pure-pursuit Algorithm" style="shape=hexagon;perimeter=hexagonPerimeter2;whiteSpace=wrap;html=1;fixedSize=1;" parent="1" vertex="1">
          <mxGeometry x="61.879999999999995" y="1534.6" width="116.24" height="60" as="geometry" />
        </mxCell>
        <mxCell id="XxIpFaAC-THrezAwxCm5-203" style="edgeStyle=none;curved=1;rounded=0;orthogonalLoop=1;jettySize=auto;html=1;exitX=0.5;exitY=1;exitDx=0;exitDy=0;entryX=0.5;entryY=0;entryDx=0;entryDy=0;fontSize=12;startSize=8;endSize=8;" parent="1" source="XxIpFaAC-THrezAwxCm5-204" target="XxIpFaAC-THrezAwxCm5-206" edge="1">
          <mxGeometry relative="1" as="geometry" />
        </mxCell>
        <mxCell id="XxIpFaAC-THrezAwxCm5-204" value="Look-a-Head distance Calculation" style="rounded=0;whiteSpace=wrap;html=1;" parent="1" vertex="1">
          <mxGeometry x="59.999999999999886" y="1624.6" width="116.61" height="45.4" as="geometry" />
        </mxCell>
        <mxCell id="XxIpFaAC-THrezAwxCm5-205" style="edgeStyle=none;curved=1;rounded=0;orthogonalLoop=1;jettySize=auto;html=1;exitX=0.5;exitY=1;exitDx=0;exitDy=0;entryX=0.5;entryY=0;entryDx=0;entryDy=0;fontSize=12;startSize=8;endSize=8;" parent="1" source="XxIpFaAC-THrezAwxCm5-206" target="XxIpFaAC-THrezAwxCm5-208" edge="1">
          <mxGeometry relative="1" as="geometry" />
        </mxCell>
        <mxCell id="XxIpFaAC-THrezAwxCm5-206" value="Run a loop for each point in Local Path" style="rounded=0;whiteSpace=wrap;html=1;" parent="1" vertex="1">
          <mxGeometry x="59.999999999999886" y="1704.6" width="116.61" height="45.4" as="geometry" />
        </mxCell>
        <mxCell id="XxIpFaAC-THrezAwxCm5-207" style="edgeStyle=none;curved=1;rounded=0;orthogonalLoop=1;jettySize=auto;html=1;exitX=0.5;exitY=1;exitDx=0;exitDy=0;entryX=0.5;entryY=0;entryDx=0;entryDy=0;fontSize=12;startSize=8;endSize=8;" parent="1" source="XxIpFaAC-THrezAwxCm5-208" target="XxIpFaAC-THrezAwxCm5-210" edge="1">
          <mxGeometry relative="1" as="geometry" />
        </mxCell>
        <mxCell id="XxIpFaAC-THrezAwxCm5-208" value="Derive Steer Angle" style="rounded=0;whiteSpace=wrap;html=1;" parent="1" vertex="1">
          <mxGeometry x="59.999999999999886" y="1774.6" width="116.61" height="45.4" as="geometry" />
        </mxCell>
        <mxCell id="XxIpFaAC-THrezAwxCm5-209" style="edgeStyle=none;curved=1;rounded=0;orthogonalLoop=1;jettySize=auto;html=1;exitX=0.5;exitY=1;exitDx=0;exitDy=0;entryX=0.5;entryY=0;entryDx=0;entryDy=0;fontSize=12;startSize=8;endSize=8;" parent="1" source="XxIpFaAC-THrezAwxCm5-210" target="XxIpFaAC-THrezAwxCm5-211" edge="1">
          <mxGeometry relative="1" as="geometry" />
        </mxCell>
        <mxCell id="XxIpFaAC-THrezAwxCm5-210" value="Saturation" style="rounded=0;whiteSpace=wrap;html=1;" parent="1" vertex="1">
          <mxGeometry x="59.999999999999886" y="1844.6" width="116.61" height="45.4" as="geometry" />
        </mxCell>
        <mxCell id="XxIpFaAC-THrezAwxCm5-211" value="Steer Angle" style="shape=parallelogram;perimeter=parallelogramPerimeter;whiteSpace=wrap;html=1;fixedSize=1;" parent="1" vertex="1">
          <mxGeometry x="60" y="1914.6" width="120" height="40" as="geometry" />
        </mxCell>
        <mxCell id="XxIpFaAC-THrezAwxCm5-212" style="edgeStyle=orthogonalEdgeStyle;rounded=0;orthogonalLoop=1;jettySize=auto;html=1;exitX=0.5;exitY=1;exitDx=0;exitDy=0;" parent="1" source="XxIpFaAC-THrezAwxCm5-186" target="XxIpFaAC-THrezAwxCm5-191" edge="1">
          <mxGeometry relative="1" as="geometry">
            <mxPoint x="28.305000000000064" y="1509.9999999999998" as="sourcePoint" />
            <mxPoint x="207.85" y="1924.6" as="targetPoint" />
          </mxGeometry>
        </mxCell>
        <mxCell id="XxIpFaAC-THrezAwxCm5-213" style="edgeStyle=orthogonalEdgeStyle;rounded=0;orthogonalLoop=1;jettySize=auto;html=1;exitX=0.5;exitY=1;exitDx=0;exitDy=0;" parent="1" source="XxIpFaAC-THrezAwxCm5-186" target="XxIpFaAC-THrezAwxCm5-202" edge="1">
          <mxGeometry relative="1" as="geometry">
            <mxPoint x="57.94" y="1509.6" as="sourcePoint" />
            <mxPoint x="-30.06" y="1569.6" as="targetPoint" />
          </mxGeometry>
        </mxCell>
        <mxCell id="XxIpFaAC-THrezAwxCm5-214" value="System Mode, Steer, Accel, Brake&amp;nbsp;" style="shape=offPageConnector;whiteSpace=wrap;html=1;size=0.3333333333333333;" parent="1" vertex="1">
          <mxGeometry x="-410" y="1120" width="178" height="90" as="geometry" />
        </mxCell>
        <mxCell id="XxIpFaAC-THrezAwxCm5-215" value="Vehicle Mode, Velocity, Gear, KIAPI Signal, Accel, Brake, Steer" style="shape=offPageConnector;whiteSpace=wrap;html=1;size=0.3333333333333333;" parent="1" vertex="1">
          <mxGeometry x="-410" y="1820" width="178" height="90" as="geometry" />
        </mxCell>
        <mxCell id="XxIpFaAC-THrezAwxCm5-216" style="edgeStyle=none;curved=1;rounded=0;orthogonalLoop=1;jettySize=auto;html=1;exitX=0.5;exitY=1;exitDx=0;exitDy=0;entryX=0.5;entryY=0;entryDx=0;entryDy=0;fontSize=12;startSize=8;endSize=8;" parent="1" source="XxIpFaAC-THrezAwxCm5-217" target="XxIpFaAC-THrezAwxCm5-223" edge="1">
          <mxGeometry relative="1" as="geometry" />
        </mxCell>
        <mxCell id="XxIpFaAC-THrezAwxCm5-217" value="Read from CAN" style="shape=hexagon;perimeter=hexagonPerimeter2;whiteSpace=wrap;html=1;fixedSize=1;" parent="1" vertex="1">
          <mxGeometry x="-480" y="1534.6" width="116.24" height="60" as="geometry" />
        </mxCell>
        <mxCell id="XxIpFaAC-THrezAwxCm5-218" style="edgeStyle=none;curved=1;rounded=0;orthogonalLoop=1;jettySize=auto;html=1;exitX=0.5;exitY=1;exitDx=0;exitDy=0;entryX=0.5;entryY=0;entryDx=0;entryDy=0;fontSize=12;startSize=8;endSize=8;" parent="1" source="XxIpFaAC-THrezAwxCm5-219" target="XxIpFaAC-THrezAwxCm5-225" edge="1">
          <mxGeometry relative="1" as="geometry" />
        </mxCell>
        <mxCell id="XxIpFaAC-THrezAwxCm5-219" value="Send on CAN" style="shape=hexagon;perimeter=hexagonPerimeter2;whiteSpace=wrap;html=1;fixedSize=1;" parent="1" vertex="1">
          <mxGeometry x="-300" y="1534.6" width="116.24" height="60" as="geometry" />
        </mxCell>
        <mxCell id="XxIpFaAC-THrezAwxCm5-220" style="edgeStyle=orthogonalEdgeStyle;rounded=0;orthogonalLoop=1;jettySize=auto;html=1;exitX=0.5;exitY=1;exitDx=0;exitDy=0;" parent="1" source="XxIpFaAC-THrezAwxCm5-189" edge="1">
          <mxGeometry relative="1" as="geometry">
            <mxPoint x="-322" y="1475" as="sourcePoint" />
            <mxPoint x="-410" y="1535" as="targetPoint" />
          </mxGeometry>
        </mxCell>
        <mxCell id="XxIpFaAC-THrezAwxCm5-221" style="edgeStyle=orthogonalEdgeStyle;rounded=0;orthogonalLoop=1;jettySize=auto;html=1;exitX=0.5;exitY=1;exitDx=0;exitDy=0;" parent="1" source="XxIpFaAC-THrezAwxCm5-189" edge="1">
          <mxGeometry relative="1" as="geometry">
            <mxPoint x="-322" y="1475" as="sourcePoint" />
            <mxPoint x="-230" y="1535" as="targetPoint" />
          </mxGeometry>
        </mxCell>
        <mxCell id="XxIpFaAC-THrezAwxCm5-222" style="edgeStyle=none;curved=1;rounded=0;orthogonalLoop=1;jettySize=auto;html=1;exitX=0.5;exitY=1;exitDx=0;exitDy=0;entryX=0.5;entryY=0;entryDx=0;entryDy=0;fontSize=12;startSize=8;endSize=8;" parent="1" source="XxIpFaAC-THrezAwxCm5-223" target="XxIpFaAC-THrezAwxCm5-227" edge="1">
          <mxGeometry relative="1" as="geometry" />
        </mxCell>
        <mxCell id="XxIpFaAC-THrezAwxCm5-223" value="Decode CAN" style="rounded=0;whiteSpace=wrap;html=1;" parent="1" vertex="1">
          <mxGeometry x="-480.0000000000001" y="1610" width="116.61" height="45.4" as="geometry" />
        </mxCell>
        <mxCell id="XxIpFaAC-THrezAwxCm5-224" style="edgeStyle=none;curved=1;rounded=0;orthogonalLoop=1;jettySize=auto;html=1;exitX=0.5;exitY=1;exitDx=0;exitDy=0;entryX=0.5;entryY=0;entryDx=0;entryDy=0;fontSize=12;startSize=8;endSize=8;" parent="1" source="XxIpFaAC-THrezAwxCm5-225" target="XxIpFaAC-THrezAwxCm5-229" edge="1">
          <mxGeometry relative="1" as="geometry" />
        </mxCell>
        <mxCell id="XxIpFaAC-THrezAwxCm5-225" value="Update input data" style="rounded=0;whiteSpace=wrap;html=1;" parent="1" vertex="1">
          <mxGeometry x="-300.0000000000001" y="1610" width="116.61" height="45.4" as="geometry" />
        </mxCell>
        <mxCell id="XxIpFaAC-THrezAwxCm5-226" style="edgeStyle=none;curved=1;rounded=0;orthogonalLoop=1;jettySize=auto;html=1;exitX=0.5;exitY=1;exitDx=0;exitDy=0;entryX=0.5;entryY=0;entryDx=0;entryDy=0;fontSize=12;startSize=8;endSize=8;" parent="1" source="XxIpFaAC-THrezAwxCm5-227" target="XxIpFaAC-THrezAwxCm5-230" edge="1">
          <mxGeometry relative="1" as="geometry" />
        </mxCell>
        <mxCell id="XxIpFaAC-THrezAwxCm5-227" value="Parse Data" style="rounded=0;whiteSpace=wrap;html=1;" parent="1" vertex="1">
          <mxGeometry x="-480.0000000000001" y="1680" width="116.61" height="45.4" as="geometry" />
        </mxCell>
        <mxCell id="XxIpFaAC-THrezAwxCm5-228" style="edgeStyle=none;curved=1;rounded=0;orthogonalLoop=1;jettySize=auto;html=1;exitX=0.5;exitY=1;exitDx=0;exitDy=0;entryX=0.5;entryY=0;entryDx=0;entryDy=0;fontSize=12;startSize=8;endSize=8;" parent="1" source="XxIpFaAC-THrezAwxCm5-229" target="XxIpFaAC-THrezAwxCm5-231" edge="1">
          <mxGeometry relative="1" as="geometry" />
        </mxCell>
        <mxCell id="XxIpFaAC-THrezAwxCm5-229" value="Encode Data" style="rounded=0;whiteSpace=wrap;html=1;" parent="1" vertex="1">
          <mxGeometry x="-300.0000000000001" y="1680" width="116.61" height="45.4" as="geometry" />
        </mxCell>
        <mxCell id="XxIpFaAC-THrezAwxCm5-230" value="CAN Output" style="shape=parallelogram;perimeter=parallelogramPerimeter;whiteSpace=wrap;html=1;fixedSize=1;" parent="1" vertex="1">
          <mxGeometry x="-480" y="1755.4" width="120" height="40" as="geometry" />
        </mxCell>
        <mxCell id="XxIpFaAC-THrezAwxCm5-231" value="CAN Input" style="shape=parallelogram;perimeter=parallelogramPerimeter;whiteSpace=wrap;html=1;fixedSize=1;" parent="1" vertex="1">
          <mxGeometry x="-300" y="1755.4" width="120" height="40" as="geometry" />
        </mxCell>
        <mxCell id="XxIpFaAC-THrezAwxCm5-232" style="edgeStyle=none;curved=1;rounded=0;orthogonalLoop=1;jettySize=auto;html=1;exitX=0.5;exitY=1;exitDx=0;exitDy=0;entryX=0.5;entryY=0;entryDx=0;entryDy=0;fontSize=12;startSize=8;endSize=8;" parent="1" source="XxIpFaAC-THrezAwxCm5-233" target="XxIpFaAC-THrezAwxCm5-235" edge="1">
          <mxGeometry relative="1" as="geometry" />
        </mxCell>
        <mxCell id="XxIpFaAC-THrezAwxCm5-233" value="Converting" style="shape=hexagon;perimeter=hexagonPerimeter2;whiteSpace=wrap;html=1;fixedSize=1;fillColor=#d5e8d4;strokeColor=#82b366;" parent="1" vertex="1">
          <mxGeometry x="199.99548387096777" y="650" width="116.61290322580645" height="54.4" as="geometry" />
        </mxCell>
        <mxCell id="XxIpFaAC-THrezAwxCm5-234" style="edgeStyle=none;curved=1;rounded=0;orthogonalLoop=1;jettySize=auto;html=1;exitX=0.5;exitY=1;exitDx=0;exitDy=0;entryX=0.5;entryY=0;entryDx=0;entryDy=0;fontSize=12;startSize=8;endSize=8;" parent="1" source="XxIpFaAC-THrezAwxCm5-235" target="XxIpFaAC-THrezAwxCm5-236" edge="1">
          <mxGeometry relative="1" as="geometry" />
        </mxCell>
        <mxCell id="XxIpFaAC-THrezAwxCm5-235" value="Calculate wheel velocity" style="rounded=0;whiteSpace=wrap;html=1;" parent="1" vertex="1">
          <mxGeometry x="199.99548387096775" y="733.5999999999999" width="116.61290322580645" height="40.8" as="geometry" />
        </mxCell>
        <mxCell id="XxIpFaAC-THrezAwxCm5-236" value="Actual Velocity" style="shape=parallelogram;perimeter=parallelogramPerimeter;whiteSpace=wrap;html=1;fixedSize=1;" parent="1" vertex="1">
          <mxGeometry x="199.99548387096775" y="799.5999999999999" width="116.61290322580645" height="40.8" as="geometry" />
        </mxCell>
        <mxCell id="XxIpFaAC-THrezAwxCm5-237" value="DriveMessage" style="shape=cube;whiteSpace=wrap;html=1;boundedLbl=1;backgroundOutline=1;darkOpacity=0.05;darkOpacity2=0.1;" parent="1" vertex="1">
          <mxGeometry x="631.88" y="340" width="120" height="80" as="geometry" />
        </mxCell>
        <mxCell id="XxIpFaAC-THrezAwxCm5-238" value="&lt;span style=&quot;caret-color: rgb(0, 0, 0); color: rgb(0, 0, 0); font-family: Helvetica; font-size: 12px; font-style: normal; font-variant-caps: normal; font-weight: 400; letter-spacing: normal; orphans: auto; text-align: center; text-indent: 0px; text-transform: none; white-space: normal; widows: auto; word-spacing: 0px; -webkit-text-stroke-width: 0px; background-color: rgb(251, 251, 251); text-decoration: none; display: inline !important; float: none;&quot;&gt;Calibration&lt;/span&gt;" style="shape=hexagon;perimeter=hexagonPerimeter2;whiteSpace=wrap;html=1;fixedSize=1;fillColor=#f8cecc;strokeColor=#b85450;" parent="1" vertex="1">
          <mxGeometry x="541.4137096774194" y="650" width="116.61290322580645" height="54.4" as="geometry" />
        </mxCell>
        <mxCell id="XxIpFaAC-THrezAwxCm5-239" value="IMU Dead reckoning" style="rounded=0;whiteSpace=wrap;html=1;" parent="1" vertex="1">
          <mxGeometry x="541.4137096774194" y="718" width="116.61290322580645" height="40.8" as="geometry" />
        </mxCell>
        <mxCell id="XxIpFaAC-THrezAwxCm5-240" value="LiDAR Odomertry" style="rounded=0;whiteSpace=wrap;html=1;" parent="1" vertex="1">
          <mxGeometry x="541.4137096774194" y="779.1999999999999" width="116.61290322580645" height="40.8" as="geometry" />
        </mxCell>
        <mxCell id="XxIpFaAC-THrezAwxCm5-241" value="" style="endArrow=classic;html=1;rounded=0;exitX=0.5;exitY=1;exitDx=0;exitDy=0;" parent="1" source="XxIpFaAC-THrezAwxCm5-239" target="XxIpFaAC-THrezAwxCm5-240" edge="1">
          <mxGeometry width="50" height="50" relative="1" as="geometry">
            <mxPoint x="492.825" y="840.4" as="sourcePoint" />
            <mxPoint x="541.4137096774194" y="806.4" as="targetPoint" />
          </mxGeometry>
        </mxCell>
        <mxCell id="XxIpFaAC-THrezAwxCm5-242" value="" style="endArrow=classic;html=1;rounded=0;exitX=0.5;exitY=1;exitDx=0;exitDy=0;entryX=0.5;entryY=0;entryDx=0;entryDy=0;" parent="1" source="XxIpFaAC-THrezAwxCm5-238" target="XxIpFaAC-THrezAwxCm5-239" edge="1">
          <mxGeometry width="50" height="50" relative="1" as="geometry">
            <mxPoint x="813.5104838709678" y="969.5999999999999" as="sourcePoint" />
            <mxPoint x="1022.441935483871" y="1071.6" as="targetPoint" />
          </mxGeometry>
        </mxCell>
        <mxCell id="XxIpFaAC-THrezAwxCm5-243" value="Filtered Position,Heading" style="shape=parallelogram;perimeter=parallelogramPerimeter;whiteSpace=wrap;html=1;fixedSize=1;" parent="1" vertex="1">
          <mxGeometry x="541.4137096774194" y="833.6" width="116.61290322580645" height="40.8" as="geometry" />
        </mxCell>
        <mxCell id="XxIpFaAC-THrezAwxCm5-244" value="" style="endArrow=classic;html=1;rounded=0;exitX=0.5;exitY=1;exitDx=0;exitDy=0;entryX=0.5;entryY=0;entryDx=0;entryDy=0;" parent="1" source="XxIpFaAC-THrezAwxCm5-240" target="XxIpFaAC-THrezAwxCm5-243" edge="1">
          <mxGeometry width="50" height="50" relative="1" as="geometry">
            <mxPoint x="716.3330645161291" y="826.8" as="sourcePoint" />
            <mxPoint x="599.7201612903226" y="779.1999999999999" as="targetPoint" />
          </mxGeometry>
        </mxCell>
        <mxCell id="XxIpFaAC-THrezAwxCm5-245" style="edgeStyle=none;curved=1;rounded=0;orthogonalLoop=1;jettySize=auto;html=1;exitX=0.5;exitY=1;exitDx=0;exitDy=0;entryX=0.5;entryY=0;entryDx=0;entryDy=0;fontSize=12;startSize=8;endSize=8;" parent="1" source="XxIpFaAC-THrezAwxCm5-246" target="XxIpFaAC-THrezAwxCm5-247" edge="1">
          <mxGeometry relative="1" as="geometry" />
        </mxCell>
        <mxCell id="XxIpFaAC-THrezAwxCm5-246" value="ROS Handler" style="shape=hexagon;perimeter=hexagonPerimeter2;whiteSpace=wrap;html=1;fixedSize=1;" parent="1" vertex="1">
          <mxGeometry x="631.8800000000001" y="440" width="116.24" height="60" as="geometry" />
        </mxCell>
        <mxCell id="XxIpFaAC-THrezAwxCm5-247" value="Parse Msgs" style="rounded=0;whiteSpace=wrap;html=1;" parent="1" vertex="1">
          <mxGeometry x="630" y="530" width="116.61" height="45.4" as="geometry" />
        </mxCell>
        <mxCell id="XxIpFaAC-THrezAwxCm5-248" style="edgeStyle=orthogonalEdgeStyle;rounded=0;orthogonalLoop=1;jettySize=auto;html=1;exitX=0.5;exitY=1;exitDx=0;exitDy=0;" parent="1" source="XxIpFaAC-THrezAwxCm5-247" target="XxIpFaAC-THrezAwxCm5-233" edge="1">
          <mxGeometry relative="1" as="geometry">
            <mxPoint x="417.11" y="910" as="sourcePoint" />
            <mxPoint x="158.11" y="1210" as="targetPoint" />
          </mxGeometry>
        </mxCell>
        <mxCell id="XxIpFaAC-THrezAwxCm5-249" style="edgeStyle=orthogonalEdgeStyle;rounded=0;orthogonalLoop=1;jettySize=auto;html=1;exitX=0.5;exitY=1;exitDx=0;exitDy=0;" parent="1" source="XxIpFaAC-THrezAwxCm5-247" target="XxIpFaAC-THrezAwxCm5-14" edge="1">
          <mxGeometry relative="1" as="geometry">
            <mxPoint x="691.52" y="609.6" as="sourcePoint" />
            <mxPoint x="261.52" y="684.6" as="targetPoint" />
          </mxGeometry>
        </mxCell>
        <mxCell id="XxIpFaAC-THrezAwxCm5-250" style="edgeStyle=orthogonalEdgeStyle;rounded=0;orthogonalLoop=1;jettySize=auto;html=1;exitX=0.5;exitY=1;exitDx=0;exitDy=0;entryX=0.5;entryY=0;entryDx=0;entryDy=0;" parent="1" source="XxIpFaAC-THrezAwxCm5-247" target="XxIpFaAC-THrezAwxCm5-30" edge="1">
          <mxGeometry relative="1" as="geometry">
            <mxPoint x="679.73" y="599.6" as="sourcePoint" />
            <mxPoint x="1039.73" y="674.6" as="targetPoint" />
          </mxGeometry>
        </mxCell>
        <mxCell id="XxIpFaAC-THrezAwxCm5-251" style="edgeStyle=orthogonalEdgeStyle;rounded=0;orthogonalLoop=1;jettySize=auto;html=1;exitX=0.5;exitY=1;exitDx=0;exitDy=0;entryX=0.5;entryY=0;entryDx=0;entryDy=0;" parent="1" source="XxIpFaAC-THrezAwxCm5-247" target="XxIpFaAC-THrezAwxCm5-36" edge="1">
          <mxGeometry relative="1" as="geometry">
            <mxPoint x="616.9300000000001" y="599.6" as="sourcePoint" />
            <mxPoint x="722.9300000000001" y="674.6" as="targetPoint" />
          </mxGeometry>
        </mxCell>
        <mxCell id="XxIpFaAC-THrezAwxCm5-252" style="edgeStyle=orthogonalEdgeStyle;rounded=0;orthogonalLoop=1;jettySize=auto;html=1;exitX=0.5;exitY=1;exitDx=0;exitDy=0;entryX=0.5;entryY=0;entryDx=0;entryDy=0;" parent="1" source="XxIpFaAC-THrezAwxCm5-247" target="XxIpFaAC-THrezAwxCm5-238" edge="1">
          <mxGeometry relative="1" as="geometry">
            <mxPoint x="693.4" y="609.6" as="sourcePoint" />
            <mxPoint x="438.4" y="684.6" as="targetPoint" />
          </mxGeometry>
        </mxCell>
        <mxCell id="XxIpFaAC-THrezAwxCm5-263" value="" style="edgeStyle=orthogonalEdgeStyle;rounded=0;orthogonalLoop=1;jettySize=auto;html=1;" parent="1" source="XxIpFaAC-THrezAwxCm5-255" target="XxIpFaAC-THrezAwxCm5-259" edge="1">
          <mxGeometry relative="1" as="geometry" />
        </mxCell>
        <mxCell id="XxIpFaAC-THrezAwxCm5-255" value="Proejction" style="rounded=0;whiteSpace=wrap;html=1;" parent="1" vertex="1">
          <mxGeometry x="641.512741935484" y="-249.60000000000008" width="116.61290322580645" height="40.8" as="geometry" />
        </mxCell>
        <mxCell id="XxIpFaAC-THrezAwxCm5-256" value="" style="endArrow=classic;html=1;rounded=0;exitX=0.5;exitY=1;exitDx=0;exitDy=0;" parent="1" target="XxIpFaAC-THrezAwxCm5-255" edge="1">
          <mxGeometry width="50" height="50" relative="1" as="geometry">
            <mxPoint x="699.49" y="-269.8" as="sourcePoint" />
            <mxPoint x="641.512741935484" y="-222.40000000000006" as="targetPoint" />
          </mxGeometry>
        </mxCell>
        <mxCell id="XxIpFaAC-THrezAwxCm5-257" value="Ground Removal" style="rounded=0;whiteSpace=wrap;html=1;" parent="1" vertex="1">
          <mxGeometry x="641.512741935484" y="-189.80000000000007" width="116.61290322580645" height="40.8" as="geometry" />
        </mxCell>
        <mxCell id="XxIpFaAC-THrezAwxCm5-258" value="" style="endArrow=classic;html=1;rounded=0;exitX=0.5;exitY=1;exitDx=0;exitDy=0;" parent="1" target="XxIpFaAC-THrezAwxCm5-257" edge="1">
          <mxGeometry width="50" height="50" relative="1" as="geometry">
            <mxPoint x="699.49" y="-210.00000000000003" as="sourcePoint" />
            <mxPoint x="641.512741935484" y="-162.60000000000002" as="targetPoint" />
          </mxGeometry>
        </mxCell>
        <mxCell id="XxIpFaAC-THrezAwxCm5-259" value="Voxelization" style="rounded=0;whiteSpace=wrap;html=1;" parent="1" vertex="1">
          <mxGeometry x="641.512741935484" y="-129.80000000000007" width="116.61290322580645" height="40.8" as="geometry" />
        </mxCell>
        <mxCell id="XxIpFaAC-THrezAwxCm5-260" value="" style="endArrow=classic;html=1;rounded=0;exitX=0.5;exitY=1;exitDx=0;exitDy=0;" parent="1" target="XxIpFaAC-THrezAwxCm5-259" edge="1">
          <mxGeometry width="50" height="50" relative="1" as="geometry">
            <mxPoint x="699.49" y="-150" as="sourcePoint" />
            <mxPoint x="641.512741935484" y="-102.60000000000002" as="targetPoint" />
          </mxGeometry>
        </mxCell>
        <mxCell id="XxIpFaAC-THrezAwxCm5-261" value="Euclidean Clustering" style="rounded=0;whiteSpace=wrap;html=1;" parent="1" vertex="1">
          <mxGeometry x="641.512741935484" y="-69.80000000000007" width="116.61290322580645" height="40.8" as="geometry" />
        </mxCell>
        <mxCell id="XxIpFaAC-THrezAwxCm5-262" value="" style="endArrow=classic;html=1;rounded=0;exitX=0.5;exitY=1;exitDx=0;exitDy=0;" parent="1" target="XxIpFaAC-THrezAwxCm5-261" edge="1">
          <mxGeometry width="50" height="50" relative="1" as="geometry">
            <mxPoint x="699.49" y="-90" as="sourcePoint" />
            <mxPoint x="641.512741935484" y="-42.60000000000002" as="targetPoint" />
          </mxGeometry>
        </mxCell>
        <mxCell id="XxIpFaAC-THrezAwxCm5-275" style="edgeStyle=orthogonalEdgeStyle;rounded=0;orthogonalLoop=1;jettySize=auto;html=1;exitX=0.5;exitY=1;exitDx=0;exitDy=0;entryX=0.5;entryY=0;entryDx=0;entryDy=0;" parent="1" source="XxIpFaAC-THrezAwxCm5-265" target="XxIpFaAC-THrezAwxCm5-267" edge="1">
          <mxGeometry relative="1" as="geometry" />
        </mxCell>
        <mxCell id="XxIpFaAC-THrezAwxCm5-265" value="L-shape Fitting" style="rounded=0;whiteSpace=wrap;html=1;" parent="1" vertex="1">
          <mxGeometry x="641.512741935484" y="-9.800000000000061" width="116.61290322580645" height="40.8" as="geometry" />
        </mxCell>
        <mxCell id="XxIpFaAC-THrezAwxCm5-266" value="" style="endArrow=classic;html=1;rounded=0;exitX=0.5;exitY=1;exitDx=0;exitDy=0;" parent="1" target="XxIpFaAC-THrezAwxCm5-265" edge="1">
          <mxGeometry width="50" height="50" relative="1" as="geometry">
            <mxPoint x="699.49" y="-29.999999999999993" as="sourcePoint" />
            <mxPoint x="641.512741935484" y="17.399999999999984" as="targetPoint" />
          </mxGeometry>
        </mxCell>
        <mxCell id="XxIpFaAC-THrezAwxCm5-267" value="Tracking" style="shape=hexagon;perimeter=hexagonPerimeter2;whiteSpace=wrap;html=1;fixedSize=1;fillColor=#f8cecc;strokeColor=#b85450;" parent="1" vertex="1">
          <mxGeometry x="638.4127419354838" y="51.40000000000002" width="116.61290322580645" height="54.4" as="geometry" />
        </mxCell>
        <mxCell id="XxIpFaAC-THrezAwxCm5-271" style="edgeStyle=orthogonalEdgeStyle;rounded=0;orthogonalLoop=1;jettySize=auto;html=1;exitX=0.5;exitY=1;exitDx=0;exitDy=0;entryX=0.5;entryY=0;entryDx=0;entryDy=0;" parent="1" source="XxIpFaAC-THrezAwxCm5-268" target="XxIpFaAC-THrezAwxCm5-269" edge="1">
          <mxGeometry relative="1" as="geometry" />
        </mxCell>
        <mxCell id="XxIpFaAC-THrezAwxCm5-268" value="Track Management" style="rounded=0;whiteSpace=wrap;html=1;" parent="1" vertex="1">
          <mxGeometry x="638.412741935484" y="111.19999999999996" width="116.61290322580645" height="40.8" as="geometry" />
        </mxCell>
        <mxCell id="XxIpFaAC-THrezAwxCm5-272" style="edgeStyle=orthogonalEdgeStyle;rounded=0;orthogonalLoop=1;jettySize=auto;html=1;exitX=0.5;exitY=1;exitDx=0;exitDy=0;entryX=0.5;entryY=0;entryDx=0;entryDy=0;" parent="1" source="XxIpFaAC-THrezAwxCm5-269" target="XxIpFaAC-THrezAwxCm5-11" edge="1">
          <mxGeometry relative="1" as="geometry" />
        </mxCell>
        <mxCell id="XxIpFaAC-THrezAwxCm5-269" value="Prediction" style="rounded=0;whiteSpace=wrap;html=1;" parent="1" vertex="1">
          <mxGeometry x="638.412741935484" y="171.2" width="116.61290322580645" height="40.8" as="geometry" />
        </mxCell>
        <mxCell id="beJByMkyxtQlN6O2iedv-1" value="Front Right Camera" style="shape=cylinder3;whiteSpace=wrap;html=1;boundedLbl=1;backgroundOutline=1;size=15;" vertex="1" parent="1">
          <mxGeometry x="1000.7100000000003" y="-417.20000000000005" width="60" height="80" as="geometry" />
        </mxCell>
        <mxCell id="beJByMkyxtQlN6O2iedv-20" style="edgeStyle=orthogonalEdgeStyle;rounded=0;orthogonalLoop=1;jettySize=auto;html=1;exitX=0.5;exitY=1;exitDx=0;exitDy=0;" edge="1" parent="1" source="beJByMkyxtQlN6O2iedv-2">
          <mxGeometry relative="1" as="geometry">
            <mxPoint x="1030.98" y="-260.6" as="targetPoint" />
          </mxGeometry>
        </mxCell>
        <mxCell id="beJByMkyxtQlN6O2iedv-2" value="Image" style="text;html=1;align=center;verticalAlign=middle;whiteSpace=wrap;rounded=0;" vertex="1" parent="1">
          <mxGeometry x="948.1083870967744" y="-337.20000000000005" width="165.20161290322582" height="20.4" as="geometry" />
        </mxCell>
        <mxCell id="beJByMkyxtQlN6O2iedv-8" style="edgeStyle=orthogonalEdgeStyle;rounded=0;orthogonalLoop=1;jettySize=auto;html=1;exitX=0.5;exitY=1;exitDx=0;exitDy=0;" edge="1" parent="1" source="beJByMkyxtQlN6O2iedv-3" target="XxIpFaAC-THrezAwxCm5-9">
          <mxGeometry relative="1" as="geometry" />
        </mxCell>
        <mxCell id="beJByMkyxtQlN6O2iedv-3" value="Stereo Matching" style="shape=hexagon;perimeter=hexagonPerimeter2;whiteSpace=wrap;html=1;fixedSize=1;fillColor=#f8cecc;strokeColor=#b85450;" vertex="1" parent="1">
          <mxGeometry x="972.4004838709681" y="-260.6" width="116.61290322580645" height="54.4" as="geometry" />
        </mxCell>
        <mxCell id="beJByMkyxtQlN6O2iedv-16" style="edgeStyle=orthogonalEdgeStyle;rounded=0;orthogonalLoop=1;jettySize=auto;html=1;exitX=0.5;exitY=1;exitDx=0;exitDy=0;" edge="1" parent="1" source="beJByMkyxtQlN6O2iedv-6" target="beJByMkyxtQlN6O2iedv-14">
          <mxGeometry relative="1" as="geometry" />
        </mxCell>
        <mxCell id="beJByMkyxtQlN6O2iedv-6" value="Distance" style="shape=parallelogram;perimeter=parallelogramPerimeter;whiteSpace=wrap;html=1;fixedSize=1;" vertex="1" parent="1">
          <mxGeometry x="972.400483870968" y="-71.20000000000005" width="116.61290322580645" height="40.8" as="geometry" />
        </mxCell>
        <mxCell id="beJByMkyxtQlN6O2iedv-15" style="edgeStyle=orthogonalEdgeStyle;rounded=0;orthogonalLoop=1;jettySize=auto;html=1;exitX=0.5;exitY=1;exitDx=0;exitDy=0;" edge="1" parent="1" source="beJByMkyxtQlN6O2iedv-9" target="beJByMkyxtQlN6O2iedv-14">
          <mxGeometry relative="1" as="geometry" />
        </mxCell>
        <mxCell id="beJByMkyxtQlN6O2iedv-9" value="Class, Conf" style="shape=parallelogram;perimeter=parallelogramPerimeter;whiteSpace=wrap;html=1;fixedSize=1;" vertex="1" parent="1">
          <mxGeometry x="847.100483870968" y="-71.20000000000005" width="116.61290322580645" height="40.8" as="geometry" />
        </mxCell>
        <mxCell id="beJByMkyxtQlN6O2iedv-17" style="edgeStyle=orthogonalEdgeStyle;rounded=0;orthogonalLoop=1;jettySize=auto;html=1;exitX=0.5;exitY=1;exitDx=0;exitDy=0;entryX=0.5;entryY=0;entryDx=0;entryDy=0;" edge="1" parent="1" source="beJByMkyxtQlN6O2iedv-14" target="XxIpFaAC-THrezAwxCm5-12">
          <mxGeometry relative="1" as="geometry" />
        </mxCell>
        <mxCell id="beJByMkyxtQlN6O2iedv-14" value="Combine" style="rounded=0;whiteSpace=wrap;html=1;" vertex="1" parent="1">
          <mxGeometry x="907.590483870968" y="-1.4000000000000625" width="116.61290322580645" height="40.8" as="geometry" />
        </mxCell>
        <mxCell id="beJByMkyxtQlN6O2iedv-22" value="" style="rounded=0;whiteSpace=wrap;html=1;strokeColor=#b85450;align=center;verticalAlign=middle;fontFamily=Helvetica;fontSize=12;fillColor=#f8cecc;" vertex="1" parent="1">
          <mxGeometry x="-148.12" y="644.4" width="120" height="25.6" as="geometry" />
        </mxCell>
        <mxCell id="beJByMkyxtQlN6O2iedv-23" value="중요도&lt;div&gt;⬇️&lt;/div&gt;" style="text;html=1;align=center;verticalAlign=middle;whiteSpace=wrap;rounded=0;fontFamily=Helvetica;fontSize=12;fontColor=default;" vertex="1" parent="1">
          <mxGeometry x="-20" y="644.4" width="60" height="30" as="geometry" />
        </mxCell>
        <mxCell id="beJByMkyxtQlN6O2iedv-24" value="" style="rounded=0;whiteSpace=wrap;html=1;strokeColor=#d79b00;align=center;verticalAlign=middle;fontFamily=Helvetica;fontSize=12;fillColor=#ffe6cc;" vertex="1" parent="1">
          <mxGeometry x="-148.12" y="674.4" width="120" height="25.6" as="geometry" />
        </mxCell>
        <mxCell id="beJByMkyxtQlN6O2iedv-25" value="" style="rounded=0;whiteSpace=wrap;html=1;strokeColor=#d6b656;align=center;verticalAlign=middle;fontFamily=Helvetica;fontSize=12;fillColor=#fff2cc;" vertex="1" parent="1">
          <mxGeometry x="-148.12" y="704.4" width="120" height="25.6" as="geometry" />
        </mxCell>
        <mxCell id="beJByMkyxtQlN6O2iedv-26" value="" style="rounded=0;whiteSpace=wrap;html=1;strokeColor=#82b366;align=center;verticalAlign=middle;fontFamily=Helvetica;fontSize=12;fillColor=#d5e8d4;" vertex="1" parent="1">
          <mxGeometry x="-148.12" y="735.1999999999999" width="120" height="25.6" as="geometry" />
        </mxCell>
      </root>
    </mxGraphModel>
  </diagram>
</mxfile>
